<svg xmlns="http://www.w3.org/2000/svg" width="65" height="65" viewBox="0 0 65 65">
  <g id="Group_1200" data-name="Group 1200" transform="translate(-258 -1292)">
    <g id="Group_1201" data-name="Group 1201" transform="translate(-154 13)">
      <circle id="Ellipse_62" data-name="Ellipse 62" cx="32.5" cy="32.5" r="32.5" transform="translate(412 1279)" fill="rgba(244,166,115,0.35)"/>
      <g id="_7340562_e-commerce_online_shopping_ui_shopping_cart_icon" data-name="7340562_e-commerce_online_shopping_ui_shopping cart_icon" transform="translate(412 1280.516)">
        <path id="Path_1091" data-name="Path 1091" d="M51.851,22.361H42.582L36.533,10.34A1.512,1.512,0,0,0,33.842,11.7l5.353,10.66h-14l5.323-10.585a1.512,1.512,0,1,0-2.692-1.361l-6.048,12.1H12.536A4.536,4.536,0,0,0,8,27.048v.68a3.856,3.856,0,0,0,3.856,3.7l5.383,16.951A6.048,6.048,0,0,0,23,52.6H41.387a6.048,6.048,0,0,0,5.761-4.219l5.383-16.951a3.856,3.856,0,0,0,3.856-3.856V26.9A4.536,4.536,0,0,0,51.851,22.361Zm1.512,5.217a.817.817,0,0,1-.832.832,3.024,3.024,0,0,0-2.873,2.1L44.29,47.477a3.024,3.024,0,0,1-2.9,2.1H23a3.024,3.024,0,0,1-2.9-2.1L14.729,30.511a3.024,3.024,0,0,0-2.873-2.1.817.817,0,0,1-.832-.832V26.9a1.512,1.512,0,0,1,1.512-1.512h7.757l-1.149,2.3a2.238,2.238,0,0,0-.544,1.346.166.166,0,0,1,0,.076h0a2.268,2.268,0,1,0,3.962-1.512l1.119-2.208H40.707l1.134,2.283A2.268,2.268,0,1,0,45.8,29.18h0a.166.166,0,0,1,0-.076,2.238,2.238,0,0,0-.544-1.346l-1.164-2.374h7.757A1.512,1.512,0,0,1,53.363,26.9Z" fill="#ff8637"/>
        <path id="Path_1092" data-name="Path 1092" d="M24.512,25A1.512,1.512,0,0,0,23,26.512v9.073a1.512,1.512,0,1,0,3.024,0V26.512A1.512,1.512,0,0,0,24.512,25Z" transform="translate(7.682 7.946)" fill="#ff8637"/>
        <path id="Path_1093" data-name="Path 1093" d="M20,26.03A1.516,1.516,0,0,0,17.127,27l3.024,9.073A1.512,1.512,0,0,0,21.512,37.1a1.89,1.89,0,0,0,.484,0,1.512,1.512,0,0,0,1.028-2Z" transform="translate(4.633 7.944)" fill="#ff8637"/>
        <path id="Path_1094" data-name="Path 1094" d="M32.03,25.077a1.512,1.512,0,0,0-1.92.953L27.086,35.1a1.512,1.512,0,0,0,.953,2,1.89,1.89,0,0,0,.484,0,1.512,1.512,0,0,0,1.437-1.028L32.983,27a1.512,1.512,0,0,0-.953-1.92Z" transform="translate(9.72 7.944)" fill="#ff8637"/>
      </g>
    </g>
  </g>
</svg>
