<svg xmlns="http://www.w3.org/2000/svg" width="65" height="65" viewBox="0 0 65 65">
  <g id="Group_1201" data-name="Group 1201" transform="translate(-711 -1279)">
    <circle id="Ellipse_62" data-name="Ellipse 62" cx="32.5" cy="32.5" r="32.5" transform="translate(711 1279)" fill="rgba(244,166,115,0.35)"/>
    <g id="_4575061_artificial_brain_computer_consciousness_electronic_icon" data-name="4575061_artificial_brain_computer_consciousness_electronic_icon" transform="translate(721.038 1287)">
      <g id="Group_1193" data-name="Group 1193" transform="translate(1.042 1)">
        <path id="Path_1095" data-name="Path 1095" d="M17.4,11.289a5.33,5.33,0,1,0-10.661,0,5.273,5.273,0,0,0,.588,2.386A5.316,5.316,0,0,0,8.872,24.082" transform="translate(-1.025 -0.966)" fill="none" stroke="#ff8637" stroke-linecap="round" stroke-linejoin="round" stroke-width="2"/>
        <path id="Path_1096" data-name="Path 1096" d="M3.6,21.563A7.048,7.048,0,1,0,15,28.392v-.348" transform="translate(-1.042 -0.859)" fill="none" stroke="#ff8637" stroke-linecap="round" stroke-miterlimit="10" stroke-width="2"/>
        <path id="Path_1097" data-name="Path 1097" d="M8.454,42.385a6.259,6.259,0,0,1-3.346-5.541,6.192,6.192,0,0,1,.69-2.8" transform="translate(-1.014 -0.773)" fill="none" stroke="#ff8637" stroke-linecap="round" stroke-linejoin="round" stroke-width="2"/>
        <path id="Path_1098" data-name="Path 1098" d="M19.034,16A5.034,5.034,0,0,1,14,21.034" transform="translate(-0.953 -0.897)" fill="none" stroke="#ff8637" stroke-linecap="round" stroke-miterlimit="10" stroke-width="2"/>
        <g id="Group_1192" data-name="Group 1192" transform="translate(14.096 13.079)">
          <path id="Path_1099" data-name="Path 1099" d="M19,16.024H30.579l2.035-2.034" transform="translate(-15.014 -13.99)" fill="none" stroke="#ff8637" stroke-linecap="round" stroke-miterlimit="10" stroke-width="2"/>
          <path id="Path_1100" data-name="Path 1100" d="M25.5,20.024h6.041l2.035-2.034h5.517" transform="translate(-14.97 -13.963)" fill="none" stroke="#ff8637" stroke-linecap="round" stroke-miterlimit="10" stroke-width="2"/>
          <path id="Path_1101" data-name="Path 1101" d="M24.917,31.99h5.621l2.035,2.034" transform="translate(-14.974 -13.867)" fill="none" stroke="#ff8637" stroke-linecap="round" stroke-miterlimit="10" stroke-width="2"/>
          <path id="Path_1102" data-name="Path 1102" d="M24.917,27.99h6.628l2.035,2.034H39.1" transform="translate(-14.974 -13.894)" fill="none" stroke="#ff8637" stroke-linecap="round" stroke-miterlimit="10" stroke-width="2"/>
          <path id="Path_1103" data-name="Path 1103" d="M39.164,38.024h-7.53L30.1,35.99H25.11v6.094a5.034,5.034,0,0,1-10.069,0" transform="translate(-15.042 -13.839)" fill="none" stroke="#ff8637" stroke-linecap="round" stroke-miterlimit="10" stroke-width="2"/>
        </g>
        <path id="Path_1104" data-name="Path 1104" d="M17.042,4.155A4.081,4.081,0,0,1,25.1,5.08v7.005h4.489l2.034-2.034h7.53" transform="translate(-0.932 -1)" fill="none" stroke="#ff8637" stroke-linecap="round" stroke-miterlimit="10" stroke-width="2"/>
        <line id="Line_23" data-name="Line 23" x1="11.033" transform="translate(24.164 23.158)" fill="none" stroke="#ff8637" stroke-linecap="round" stroke-miterlimit="10" stroke-width="2"/>
        <circle id="Ellipse_63" data-name="Ellipse 63" cx="1.007" cy="1.007" r="1.007" transform="translate(9.02 18.124)" fill="#ff8637"/>
        <circle id="Ellipse_64" data-name="Ellipse 64" cx="1.007" cy="1.007" r="1.007" transform="translate(9.817 41.785)" fill="#ff8637"/>
      </g>
      <circle id="Ellipse_65" data-name="Ellipse 65" cx="2.014" cy="2.014" r="2.014" transform="translate(39.743 8.048)" fill="none" stroke="#ff8637" stroke-linecap="round" stroke-miterlimit="10" stroke-width="2"/>
      <circle id="Ellipse_66" data-name="Ellipse 66" cx="2.014" cy="2.014" r="2.014" transform="translate(39.743 16.103)" fill="none" stroke="#ff8637" stroke-linecap="round" stroke-miterlimit="10" stroke-width="2"/>
      <circle id="Ellipse_67" data-name="Ellipse 67" cx="2.014" cy="2.014" r="2.014" transform="translate(39.743 28.185)" fill="none" stroke="#ff8637" stroke-linecap="round" stroke-miterlimit="10" stroke-width="2"/>
      <circle id="Ellipse_68" data-name="Ellipse 68" cx="2.014" cy="2.014" r="2.014" transform="translate(39.743 36.24)" fill="none" stroke="#ff8637" stroke-linecap="round" stroke-miterlimit="10" stroke-width="2"/>
    </g>
  </g>
</svg>
