<svg xmlns="http://www.w3.org/2000/svg" width="1228.785" height="856.943" viewBox="0 0 1228.785 856.943">
  <g id="Group_896" data-name="Group 896" transform="translate(-66 -743)">
    <g id="Ellipse_48" data-name="Ellipse 48" transform="translate(1235 1448)" fill="rgba(255,255,255,0)" stroke="#f4a673" stroke-width="1">
      <circle cx="13.5" cy="13.5" r="13.5" stroke="none"/>
      <circle cx="13.5" cy="13.5" r="13" fill="none"/>
    </g>
    <g id="Polygon_4" data-name="Polygon 4" transform="translate(531.385 1409.575) rotate(-30)">
      <path id="Path_727" data-name="Path 727" d="M28.132,24.5H.868L14.5,1Z" fill="none" stroke="#f4a673" stroke-width="1"/>
      <path id="Path_728" data-name="Path 728" d="M14.5,1.993,1.736,24H27.264L14.5,1.993M14.5,0,29,25H0Z" fill="none" stroke="#f4a673" stroke-width="1"/>
    </g>
    <g id="Rectangle_150" data-name="Rectangle 150" transform="translate(1262 1000.5) rotate(-30)" fill="none" stroke="#f4a673" stroke-width="1">
      <rect width="24" height="24" stroke="none"/>
      <rect x="0.5" y="0.5" width="23" height="23" fill="none"/>
    </g>
    <path id="Path_413" data-name="Path 413" d="M936.045,318.229l9.461,3.1,7.411-6.169,10.319,4.117,5.532-8.659,11.909,4.214,6.24-7.435,12.23,2.448-1.08,3.971-9.145-1.83-6.585,7.845-11.448-4.051-5.624,8.8-11.387-4.543-7.238,6.025-8.769-2.871L934.085,328l-3.939-2.283Z" transform="translate(-240.53 83.631) rotate(30)" fill="rgba(244,166,115,0.55)"/>
    <path id="Path_556" data-name="Path 556" d="M936.045,318.229l9.461,3.1,7.411-6.169,10.319,4.117,5.532-8.659,11.909,4.214,6.24-7.435,12.23,2.448-1.08,3.971-9.145-1.83-6.585,7.845-11.448-4.051-5.624,8.8-11.387-4.543-7.238,6.025-8.769-2.871L934.085,328l-3.939-2.283Z" transform="translate(301.44 717.542) rotate(30)" fill="rgba(244,166,115,0.55)"/>
    <g id="Group_716" data-name="Group 716" transform="matrix(0.656, 0.755, -0.755, 0.656, -1169.593, -2222.874)">
      <path id="Path_429" data-name="Path 429" d="M3623.37,370.793c-.857,9.256,7.1,17.718,15.93,19.263,9.143,1.6,17.292-4.359,20.437-12.783,6.2-16.618-11.978-29.725-21.838-19.67-9.205,9.386-6.294,23.333,3.642,23.337,3.749,0,9.782-3.142,7.389-7.686a1.517,1.517,0,0,0-2.6,0c-1.206,2.054-1.11,2.128-1.68,2.586a5.108,5.108,0,0,1-3.255.941c-10.118-.173-3.391-23.325,8.537-17.717,6.55,3.079,8.481,10.528,6.208,17.028-2.188,6.26-8.059,11.109-14.849,10.674-8.112-.52-14.915-7.979-15.441-15.972a1.24,1.24,0,0,0-2.479,0Z" fill="#fad2b0"/>
    </g>
    <g id="Group_812" data-name="Group 812" transform="matrix(0.656, 0.755, -0.755, 0.656, -1337.593, -1491.783)">
      <path id="Path_429-2" data-name="Path 429" d="M3623.37,370.793c-.857,9.256,7.1,17.718,15.93,19.263,9.143,1.6,17.292-4.359,20.437-12.783,6.2-16.618-11.978-29.725-21.838-19.67-9.205,9.386-6.294,23.333,3.642,23.337,3.749,0,9.782-3.142,7.389-7.686a1.517,1.517,0,0,0-2.6,0c-1.206,2.054-1.11,2.128-1.68,2.586a5.108,5.108,0,0,1-3.255.941c-10.118-.173-3.391-23.325,8.537-17.717,6.55,3.079,8.481,10.528,6.208,17.028-2.188,6.26-8.059,11.109-14.849,10.674-8.112-.52-14.915-7.979-15.441-15.972a1.24,1.24,0,0,0-2.479,0Z" fill="#fad2b0"/>
    </g>
    <path id="Path_727-2" data-name="Path 727" d="M936.045,318.229l9.461,3.1,7.411-6.169,10.319,4.117,5.532-8.659,11.909,4.214,6.24-7.435,12.23,2.448-1.08,3.971-9.145-1.83-6.585,7.845-11.448-4.051-5.624,8.8-11.387-4.543-7.238,6.025-8.769-2.871L934.085,328l-3.939-2.283Z" transform="translate(-521.53 290) rotate(30)" fill="rgba(244,166,115,0.55)"/>
    <g id="Polygon_11" data-name="Polygon 11" transform="translate(171.253 1577.425) rotate(-30)">
      <path id="Path_729" data-name="Path 729" d="M28.132,24.5H.868L14.5,1Z" fill="none" stroke="#f4a673" stroke-width="1"/>
      <path id="Path_730" data-name="Path 730" d="M14.5,1.993,1.736,24H27.264L14.5,1.993M14.5,0,29,25H0Z" fill="none" stroke="#f4a673" stroke-width="1"/>
    </g>
    <g id="Group_894" data-name="Group 894" transform="matrix(0.656, 0.755, -0.755, 0.656, -1670.558, -1812.783)">
      <path id="Path_429-3" data-name="Path 429" d="M3623.37,370.793c-.857,9.256,7.1,17.718,15.93,19.263,9.143,1.6,17.292-4.359,20.437-12.783,6.2-16.618-11.978-29.725-21.838-19.67-9.205,9.386-6.294,23.333,3.642,23.337,3.749,0,9.782-3.142,7.389-7.686a1.517,1.517,0,0,0-2.6,0c-1.206,2.054-1.11,2.128-1.68,2.586a5.108,5.108,0,0,1-3.255.941c-10.118-.173-3.391-23.325,8.537-17.717,6.55,3.079,8.481,10.528,6.208,17.028-2.188,6.26-8.059,11.109-14.849,10.674-8.112-.52-14.915-7.979-15.441-15.972a1.24,1.24,0,0,0-2.479,0Z" transform="matrix(0.914, 0.407, -0.407, 0.914, 422.314, -1398.649)" fill="#fad2b0"/>
      <path id="Path_729-2" data-name="Path 729" d="M3623.37,370.793c-.857,9.256,7.1,17.718,15.93,19.263,9.143,1.6,17.292-4.359,20.437-12.783,6.2-16.618-11.978-29.725-21.838-19.67-9.205,9.386-6.294,23.333,3.642,23.337,3.749,0,9.782-3.142,7.389-7.686a1.517,1.517,0,0,0-2.6,0c-1.206,2.054-1.11,2.128-1.68,2.586a5.108,5.108,0,0,1-3.255.941c-10.118-.173-3.391-23.325,8.537-17.717,6.55,3.079,8.481,10.528,6.208,17.028-2.188,6.26-8.059,11.109-14.849,10.674-8.112-.52-14.915-7.979-15.441-15.972a1.24,1.24,0,0,0-2.479,0Z" transform="matrix(0.914, 0.407, -0.407, 0.914, 1024.349, -2055.67)" fill="#fad2b0"/>
    </g>
    <g id="Rectangle_167" data-name="Rectangle 167" transform="translate(683 1159.39) rotate(-30)" fill="rgba(255,255,255,0)" stroke="#f4a673" stroke-width="1">
      <rect width="24" height="24" stroke="none"/>
      <rect x="0.5" y="0.5" width="23" height="23" fill="none"/>
    </g>
    <path id="Path_728-2" data-name="Path 728" d="M936.045,318.229l9.461,3.1,7.411-6.169,10.319,4.117,5.532-8.659,11.909,4.214,6.24-7.435,12.23,2.448-1.08,3.971-9.145-1.83-6.585,7.845-11.448-4.051-5.624,8.8-11.387-4.543-7.238,6.025-8.769-2.871L934.085,328l-3.939-2.283Z" transform="matrix(0.174, 0.985, -0.985, 0.174, 1145.392, 166.751)" fill="rgba(244,166,115,0.55)"/>
    <g id="Polygon_12" data-name="Polygon 12" transform="translate(1013.03 922.425) rotate(-30)">
      <path id="Path_731" data-name="Path 731" d="M28.132,24.5H.868L14.5,1Z" fill="rgba(255,255,255,0)" stroke="#f4a673" stroke-width="0.5"/>
      <path id="Path_732" data-name="Path 732" d="M14.5,1.993,1.736,24H27.264L14.5,1.993M14.5,0,29,25H0Z" fill="rgba(255,255,255,0)" stroke="#f4a673" stroke-width="0.5"/>
    </g>
    <g id="Rectangle_168" data-name="Rectangle 168" transform="translate(284.742 1346.39) rotate(-30)" fill="none" stroke="#f4a673" stroke-width="1">
      <rect width="24" height="24" stroke="none"/>
      <rect x="0.5" y="0.5" width="23" height="23" fill="none"/>
    </g>
    <g id="Ellipse_61" data-name="Ellipse 61" transform="translate(683 975)" fill="rgba(255,255,255,0)" stroke="#f4a673" stroke-width="1">
      <circle cx="13.5" cy="13.5" r="13.5" stroke="none"/>
      <circle cx="13.5" cy="13.5" r="13" fill="none"/>
    </g>
    <g id="Ellipse_62" data-name="Ellipse 62" transform="translate(66 743)" fill="rgba(255,255,255,0)" stroke="#f4a673" stroke-width="1">
      <circle cx="13.5" cy="13.5" r="13.5" stroke="none"/>
      <circle cx="13.5" cy="13.5" r="13" fill="none"/>
    </g>
    <g id="Group_895" data-name="Group 895" transform="matrix(0.656, 0.755, -0.755, 0.656, -1118.558, -1949.783)">
      <path id="Path_429-4" data-name="Path 429" d="M3623.37,370.793c-.857,9.256,7.1,17.718,15.93,19.263,9.143,1.6,17.292-4.359,20.437-12.783,6.2-16.618-11.978-29.725-21.838-19.67-9.205,9.386-6.294,23.333,3.642,23.337,3.749,0,9.782-3.142,7.389-7.686a1.517,1.517,0,0,0-2.6,0c-1.206,2.054-1.11,2.128-1.68,2.586a5.108,5.108,0,0,1-3.255.941c-10.118-.173-3.391-23.325,8.537-17.717,6.55,3.079,8.481,10.528,6.208,17.028-2.188,6.26-8.059,11.109-14.849,10.674-8.112-.52-14.915-7.979-15.441-15.972a1.24,1.24,0,0,0-2.479,0Z" transform="matrix(0.914, 0.407, -0.407, 0.914, 422.314, -1398.649)" fill="#fad2b0"/>
    </g>
    <g id="Polygon_13" data-name="Polygon 13" transform="translate(206.385 888.425) rotate(-30)">
      <path id="Path_733" data-name="Path 733" d="M28.132,24.5H.868L14.5,1Z" fill="rgba(255,255,255,0)" stroke="#f4a673" stroke-width="1"/>
      <path id="Path_734" data-name="Path 734" d="M14.5,1.993,1.736,24H27.264L14.5,1.993M14.5,0,29,25H0Z" fill="#f4a673"/>
    </g>
  </g>
</svg>
