<svg xmlns="http://www.w3.org/2000/svg" width="23.265" height="33.236" viewBox="0 0 23.265 33.236">
  <path id="_8726241_mouse_alt_icon" data-name="8726241_mouse_alt_icon" d="M16.633,8.647a1.662,1.662,0,0,0-1.662,1.662v3.324a1.662,1.662,0,1,0,3.324,0V10.309A1.662,1.662,0,0,0,16.633,8.647Zm0-6.647A11.633,11.633,0,0,0,5,13.633V23.6a11.633,11.633,0,1,0,23.265,0V13.633A11.633,11.633,0,0,0,16.633,2Zm8.309,21.6a8.309,8.309,0,1,1-16.618,0V13.633a8.309,8.309,0,1,1,16.618,0Z" transform="translate(-5 -2)" fill="#ef995c"/>
</svg>
