<svg xmlns="http://www.w3.org/2000/svg" width="77.832" height="67.736" viewBox="0 0 77.832 67.736">
  <path id="_8688068_ic_fluent_text_proofing_tools_icon" data-name="8688068_ic_fluent_text_proofing_tools_icon" d="M15.228,3a2.605,2.605,0,0,1,2.418,1.734L26.89,30.786a2.605,2.605,0,0,1-4.911,1.742l-1.346-3.794v.318H8.908L7.536,32.6a2.605,2.605,0,0,1-4.859-1.881L12.761,4.665A2.605,2.605,0,0,1,15.228,3Zm-.143,10.1-4.16,10.745H18.9Zm65.094-2.13C78.9,7.393,77.032,5.2,74.689,4.049A12.616,12.616,0,0,0,68.915,3h-.144a10.089,10.089,0,0,0-6.913,2.538A12.885,12.885,0,0,0,58.494,10.7,21.163,21.163,0,0,0,57.37,15.41c-.079.632-.118,1.163-.139,1.542-.01.19-.016.344-.018.455l0,.134v.178a24.875,24.875,0,0,0,1.3,8.983,11.774,11.774,0,0,0,3.424,4.874A12.15,12.15,0,0,0,68.481,34.2c2.171.242,8.665.071,11.62-6.488a2.605,2.605,0,1,0-4.75-2.14A6.014,6.014,0,0,1,69.06,29.02a6.972,6.972,0,0,1-3.805-1.457,6.588,6.588,0,0,1-1.893-2.755,20.258,20.258,0,0,1-.941-7.2l0-.067c0-.065,0-.169.013-.307.015-.276.045-.684.106-1.177a15.972,15.972,0,0,1,.835-3.536A7.723,7.723,0,0,1,65.33,9.423a4.891,4.891,0,0,1,3.442-1.213,8.007,8.007,0,0,1,3.615.512c.823.405,1.932,1.337,2.888,4a2.605,2.605,0,0,0,4.9-1.759ZM49.254,17.775a9.241,9.241,0,0,0,1.668-5.611,10.289,10.289,0,0,0-1.14-5,7.5,7.5,0,0,0-2.937-2.971A10.688,10.688,0,0,0,41.594,3H33.763a2.605,2.605,0,0,0-2.605,2.605V31.658a2.605,2.605,0,0,0,2.605,2.605h9.118a11.44,11.44,0,0,0,5.573-1.414A8.452,8.452,0,0,0,52.614,25.1a9.634,9.634,0,0,0-1.284-5.094A7.529,7.529,0,0,0,49.254,17.775ZM44.291,8.73a2.292,2.292,0,0,1,.921.932,5.166,5.166,0,0,1,.5,2.5c0,2.068-.784,2.83-1.433,3.224a5.277,5.277,0,0,1-2.578.639H36.368V8.21h5.21A5.648,5.648,0,0,1,44.291,8.73ZM38.267,21.237h4.279a7.569,7.569,0,0,1,3.275.538,2.466,2.466,0,0,1,1.059.941A4.5,4.5,0,0,1,47.4,25.1c0,2-.795,2.794-1.568,3.244a6.266,6.266,0,0,1-2.954.708H36.368V21.237ZM61.121,43.728a2.605,2.605,0,1,0-4.032-3.3L37.6,64.253l-9.806-9.807a2.605,2.605,0,0,0-3.684,3.684L35.947,69.973a2.605,2.605,0,0,0,3.859-.193Z" transform="translate(-2.5 -3)" fill="#d88f5f"/>
</svg>
