<svg xmlns="http://www.w3.org/2000/svg" width="79.203" height="74.767" viewBox="0 0 79.203 74.767">
  <path id="_8674953_ic_fluent_local_language_zi_icon" data-name="8674953_ic_fluent_local_language_zi_icon" d="M58.845,1a2.67,2.67,0,0,1,2.67,2.67v4.45H77.536a2.67,2.67,0,0,1,2.67,2.67v5.34a2.67,2.67,0,1,1-5.34,0v-2.67H41.043v2.67a2.67,2.67,0,1,1-5.34,0v-5.34a2.67,2.67,0,0,1,2.67-2.67h17.8V3.67A2.67,2.67,0,0,1,58.845,1ZM46.384,18.8a2.67,2.67,0,0,0,0,5.34H62.151l-5.015,4.179a2.67,2.67,0,0,0-.961,2.051v.89H39.263a2.67,2.67,0,1,0,0,5.34H56.175v9.734a2.67,2.67,0,0,1-3.437,2.557l-2.026-.608A2.67,2.67,0,1,0,49.177,53.4l2.026.608a8.011,8.011,0,0,0,10.312-7.673V36.6H76.646a2.67,2.67,0,0,0,0-5.34h-14.7l9.287-7.739A2.67,2.67,0,0,0,69.526,18.8ZM27.3,20.5l-.173-.371a2.6,2.6,0,0,0-4.681.311L1.208,72.063l-.115.344a2.685,2.685,0,0,0,1.518,3.152,2.6,2.6,0,0,0,3.428-1.429l5.507-13.387.335.022H37.111l5.1,13.305.152.329a2.6,2.6,0,0,0,3.241,1.186,2.687,2.687,0,0,0,1.486-3.459ZM13.98,55.423l11.258-26.84,10.5,26.84Z" transform="translate(-1.004 -1)" fill="#d88f5f"/>
</svg>
