<svg id="_692155_translate_alteration_language_line-icon_logos_icon" data-name="692155_translate_alteration_language_line-icon_logos_icon" xmlns="http://www.w3.org/2000/svg" width="78.03" height="78.03" viewBox="0 0 78.03 78.03">
  <g id="Group_814" data-name="Group 814">
    <path id="Path_557" data-name="Path 557" d="M55.271,65.025H8.128A8.139,8.139,0,0,1,0,56.9V8.128A8.139,8.139,0,0,1,8.128,0h26.01a1.625,1.625,0,0,1,1.538,1.1L56.809,62.873a1.627,1.627,0,0,1-1.538,2.152ZM8.128,3.251A4.883,4.883,0,0,0,3.251,8.128V56.9a4.883,4.883,0,0,0,4.877,4.877H53L32.978,3.251Z" fill="#d88f5f"/>
  </g>
  <g id="Group_815" data-name="Group 815" transform="translate(37.39 13.005)">
    <path id="Path_558" data-name="Path 558" d="M44.013,69.025H18a1.625,1.625,0,0,1-1.522-1.053L11.6,54.967a1.626,1.626,0,0,1,3.043-1.144l4.483,11.952H44.013A4.883,4.883,0,0,0,48.89,60.9V12.128a4.883,4.883,0,0,0-4.877-4.877H13.126a1.626,1.626,0,0,1,0-3.251H44.013a8.139,8.139,0,0,1,8.128,8.128V60.9A8.139,8.139,0,0,1,44.013,69.025Z" transform="translate(-11.5 -4)" fill="#d88f5f"/>
  </g>
  <g id="Group_816" data-name="Group 816" transform="translate(42.267 61.77)">
    <path id="Path_559" data-name="Path 559" d="M14.625,35.259a1.627,1.627,0,0,1-1.222-2.7L24.782,19.555A1.627,1.627,0,1,1,27.23,21.7L15.851,34.7A1.632,1.632,0,0,1,14.625,35.259Z" transform="translate(-13 -18.999)" fill="#d88f5f"/>
  </g>
  <g id="Group_817" data-name="Group 817" transform="translate(13.004 19.616)">
    <path id="Path_560" data-name="Path 560" d="M21.883,31.935a1.622,1.622,0,0,1-1.531-1.079l-6.6-18.47-6.6,18.47a1.626,1.626,0,1,1-3.063-1.092L12.223,7a1.691,1.691,0,0,1,3.059,0l8.128,22.759a1.623,1.623,0,0,1-.985,2.078A1.565,1.565,0,0,1,21.883,31.935Z" transform="translate(-4 -6.034)" fill="#d88f5f"/>
  </g>
  <g id="Group_818" data-name="Group 818" transform="translate(17.882 32.513)">
    <path id="Path_561" data-name="Path 561" d="M13.628,13.251h-6.5a1.626,1.626,0,0,1,0-3.251h6.5a1.626,1.626,0,1,1,0,3.251Z" transform="translate(-5.5 -10)" fill="#d88f5f"/>
  </g>
  <g id="Group_819" data-name="Group 819" transform="translate(45.518 32.513)">
    <path id="Path_562" data-name="Path 562" d="M38.384,13.251H15.626a1.626,1.626,0,0,1,0-3.251H38.384a1.626,1.626,0,1,1,0,3.251Z" transform="translate(-14 -10)" fill="#d88f5f"/>
  </g>
  <g id="Group_820" data-name="Group 820" transform="translate(55.271 29.261)">
    <path id="Path_563" data-name="Path 563" d="M18.626,15.5A1.626,1.626,0,0,1,17,13.877V10.626a1.626,1.626,0,1,1,3.251,0v3.251A1.626,1.626,0,0,1,18.626,15.5Z" transform="translate(-17 -9)" fill="#d88f5f"/>
  </g>
  <g id="Group_821" data-name="Group 821" transform="translate(50.393 32.516)">
    <path id="Path_564" data-name="Path 564" d="M17.127,32.757a1.624,1.624,0,0,1-.943-2.949C23.3,24.752,28.506,14.439,28.506,11.627a1.626,1.626,0,0,1,3.251,0c0,4.285-6.265,15.557-13.688,20.834A1.65,1.65,0,0,1,17.127,32.757Z" transform="translate(-15.5 -10.001)" fill="#d88f5f"/>
  </g>
  <g id="Group_822" data-name="Group 822" transform="translate(50.395 40.642)">
    <path id="Path_565" data-name="Path 565" d="M30.13,30.381a1.6,1.6,0,0,1-1.1-.426c-1.18-1.079-11.568-10.674-13.415-15.219a1.625,1.625,0,0,1,3.011-1.222c1.33,3.274,9.546,11.246,12.6,14.042a1.626,1.626,0,0,1-1.1,2.825Z" transform="translate(-15.5 -12.5)" fill="#d88f5f"/>
  </g>
</svg>
