<svg xmlns="http://www.w3.org/2000/svg" width="1291" height="419.17" viewBox="0 0 1291 419.17">
  <g id="Group_883" data-name="Group 883" transform="translate(-135.225 -59.332)" opacity="0.5">
    <g id="Group_857" data-name="Group 857" transform="translate(135.225 149.18)">
      <path id="Path_570" data-name="Path 570" d="M589.452,708.324a45.158,45.158,0,0,1-5.607-.261,26.136,26.136,0,0,0-6.348-.165c-3.272.6-8.5,2.772-10.332,6.991-2.288,5.257-9.943,4.259-1.386,24.657,9.686,23.088,21.911,15.939,22.091,15.429s6.46-19.167,6.46-19.167,7.007,7.326,6.9,7.007S611.954,708.111,589.452,708.324Z" transform="translate(-441.057 -614.041)" fill="#0e2e35"/>
      <path id="Path_571" data-name="Path 571" d="M4224.489,1393.688l4.747-39.614-52.276-13.759s-4.175,8.156-4.175,8.523c0,11.661-1.7,27.648-3.24,44.85Z" transform="translate(-3027.448 -1067.523)" fill="#355389"/>
      <path id="Path_572" data-name="Path 572" d="M4294.364,1402.566l-6.309-49.867h-69.2l-1.441,6.437,12.379,43.43Z" transform="translate(-3061.764 -1076.401)" fill="#466eb6"/>
      <path id="Path_573" data-name="Path 573" d="M3594.535,1442.719a167.8,167.8,0,0,0-3.848-34.011l-10.3.092L3544.66,1422l3.109,20.722Z" transform="translate(-2579.465 -1116.554)" fill="#13375b"/>
      <path id="Path_574" data-name="Path 574" d="M3477.387,1397.619H3528.8c.973-5.594,1.637-9.436,1.829-10.372.584-2.847,1.954-13.4,3.9-20.061a36.808,36.808,0,0,0,.869-17l-41.729-4.387-.078,4.7c-1.4,2.729-19.275,8.384-17.708,36.434A92.653,92.653,0,0,0,3477.387,1397.619Z" transform="translate(-2530.091 -1071.453)" fill="#355389"/>
      <path id="Path_575" data-name="Path 575" d="M2612.72,1375.769h27.523l-17.988-60.448-8.238,5.61s-6.317,22.235-3.446,38.049C2611.038,1361.539,2611.789,1367.537,2612.72,1375.769Z" transform="translate(-1909.277 -1049.604)" fill="#3c8f7c"/>
      <path id="Path_576" data-name="Path 576" d="M2641.143,1358.488h42.33c.2-12.381.35-23.544-.834-29.562-2.871-14.6-14.93-32.237-14.93-32.237l-43.07-5.474,7.149,40.75Z" transform="translate(-1919.897 -1032.323)" fill="#50bfa5"/>
      <path id="Path_577" data-name="Path 577" d="M2173.718,1411.066v13.006a12.442,12.442,0,0,1-12.63,12.243h-12.993V1406h20.394a5.291,5.291,0,0,1,3.6,1.4A4.969,4.969,0,0,1,2173.718,1411.066Z" transform="translate(-1578.261 -1114.61)" fill="#0e2e35"/>
      <g id="Group_834" data-name="Group 834" transform="translate(542.666 175.121)">
        <path id="Path_578" data-name="Path 578" d="M2054.753,1117.555l4.485-.09-2.527-117.634a12.649,12.649,0,0,1,9.972,8.741L2097.89,1114.8l4.316-1.18L2071,1007.392a17.223,17.223,0,0,0-16.583-12.09h-2.29Z" transform="translate(-2052.126 -995.302)" fill="#0e2e35"/>
      </g>
      <path id="Path_579" data-name="Path 579" d="M2123.757,1407.391h-.086a4.781,4.781,0,0,0-4.853,4.7v9.567a14.888,14.888,0,0,1-15.115,14.652h-7.91a14.888,14.888,0,0,1-15.115-14.652v-9.52a6.246,6.246,0,0,1,6.341-6.147h33.138A5.29,5.29,0,0,1,2123.757,1407.391Z" transform="translate(-1529.929 -1114.61)" fill="#184655"/>
      <path id="Path_580" data-name="Path 580" d="M2109.9,1419.077l-10.837-43.347-13.948,43.347Z" transform="translate(-1533.108 -1092.912)" fill="#f7cc7f"/>
      <path id="Path_581" data-name="Path 581" d="M1996.489,1405.8c4.532-22.953,8.411-43.521,8.411-43.521l-50.665-5.068s-.366,23.161-.16,48.589Z" transform="translate(-1439.122 -1079.638)" fill="#fae0b2"/>
      <path id="Path_582" data-name="Path 582" d="M1252.232,1381.885l7.531-46.389-44.165-11.645s-2.056,20.8-2.056,21.106c0,10.208-.612,23.369-1.429,36.927Z" transform="translate(-907.25 -1055.72)" fill="#355389"/>
      <path id="Path_583" data-name="Path 583" d="M1303.414,1389.4l-2.262-19.928-3.4-19.711-53.794-15.427-1.217,23.14,10.626,31.926Z" transform="translate(-929.206 -1063.235)" fill="#466eb6"/>
      <path id="Path_584" data-name="Path 584" d="M673.064,1355.979c-1.138-17.112-2.134-34.79-2.134-47.66,0-.3-2.008-20.6-2.008-20.6l-43.113,11.368,9.237,56.9Z" transform="translate(-486.927 -1029.814)" fill="#b75742"/>
      <path id="Path_585" data-name="Path 585" d="M592.653,1363.315l14.238-42.777-1.188-22.589-52.514,15.06-3.322,19.241-3.526,31.066Z" transform="translate(-429.956 -1037.15)" fill="#f47458"/>
      <g id="Group_835" data-name="Group 835" transform="translate(1127.261 51.23)">
        <path id="Path_586" data-name="Path 586" d="M4135.2,636.826c.15-.657.279-1.217.376-1.63a28.232,28.232,0,0,1,2.912-7.264c1.059-1.943,2.868-5.291,2.917-6.992.031-1.071.222-3.959.326-5.5s.287-3.347.243-4.17a7.909,7.909,0,0,1,.635-2.312,1.32,1.32,0,0,0-1.812-1.665c-1.015.506-1.647,2-2.034,2.934-1.1,2.63-1.231,7.166-1.624,6.983s-2.73-7.511-3.051-8.331-3.083-9.323-4.167-10.794-2.177-1.043-2.333,0c-.136.9,2.812,12.924,2.812,12.924s.373,1.535-.379,1.146-3.448-11.3-4.155-12.857-1.909-2.257-2.64-.824c-.889,1.744,2.71,13.216,2.71,13.216s.425,1.446-.225,1.4-2.791-9.372-3.4-10.118a1.256,1.256,0,0,0-2.285.584c-.466,1.7,2.833,11.916,2.833,11.916s.031.846-.4.626-2.826-8.04-3.746-8.664a.873.873,0,0,0-1.256.161c-1.347,1.232,2.031,8.513,2.549,12.3s2.882,7.786,3,12.364c.02.711,1.606,9.039,1.5,9.931Z" transform="translate(-4117.139 -585.964)" fill="#f7a491"/>
        <path id="Path_587" data-name="Path 587" d="M4607.044,595.714c-.039-.673-.072-1.247-.1-1.67a28.253,28.253,0,0,0-1.663-7.647c-.721-2.092-1.948-5.694-1.713-7.38.147-1.061.438-3.94.594-5.478s.273-3.348.454-4.152a7.971,7.971,0,0,0-.242-2.385,1.321,1.321,0,0,1,2.064-1.341c.916.668,1.29,2.249,1.518,3.232.642,2.776.021,7.27.438,7.156s3.941-6.952,4.394-7.708,4.593-8.679,5.906-9.95,2.32-.666,2.3.387c-.016.906-4.923,12.276-4.923,12.276s-.623,1.451.182,1.193,5.282-10.572,6.237-11.986,2.257-1.909,2.739-.373c.586,1.867-4.87,12.581-4.87,12.581s-.66,1.355-.012,1.417,4.312-8.778,5.035-9.412a1.256,1.256,0,0,1,2.156.955c.177,1.757-4.777,11.279-4.777,11.279s-.171.83.292.684,4.125-7.457,5.135-7.92a.872.872,0,0,1,1.211.368c1.124,1.44-3.418,8.056-4.56,11.7s-4.137,7.2-5.018,11.693c-.137.7-3.087,8.645-3.127,9.544Z" transform="translate(-4465.842 -557.674)" fill="#f7a491"/>
        <path id="Path_588" data-name="Path 588" d="M4300.5,810.918s7.326-7.724,13.218,1.673a5.857,5.857,0,0,1,7.724,1.991s8.2-2.469,10.192,9.794c0,0,4.221-.8,4.778,4.22a12.412,12.412,0,0,1-1.991,8.361s2.371,1.778,1.293,6.39a5.706,5.706,0,0,1-4.161,4.519s-.875,6.609-3.742,8.6-6.769,1.035-6.769,1.035-1.035,3.583-4.379,3.265-7.485-3.5-11.229-2.07-13.457-.079-13.457-.079-10.909-4.857-7.644-16.005c0,0-5.733-5.176-.717-11.387,0,0-3.662-9.714,3.584-15.448S4300.5,810.918,4300.5,810.918Z" transform="translate(-4235.015 -737.085)" fill="#07345a"/>
        <path id="Path_589" data-name="Path 589" d="M4218.006,1026.734l18.684,2.565s14.979.367,16.832.367,13.588,68.157,16.986,93.807.765,30.192.765,30.192-23.689,5.328-41.216,3.774c-18.224-1.615-38.729-11.454-38.729-11.454s15.578-49.292,18.667-64.682S4218.006,1026.734,4218.006,1026.734Z" transform="translate(-4170.325 -893.945)" fill="#f7cc7f"/>
        <path id="Path_590" data-name="Path 590" d="M4124.594,728.274s-1.2,50.818.716,54.7c2.788,5.654,34.161,45.746,34.161,45.746s-14.987,62.72-21.288,84.379c-.635,2.181-3.443,16.27-3.443,17.644,0,3.046,13.258,6.912,14.832,6.682,1.409-.2,12.978-59.866,20.363-89.06a83.521,83.521,0,0,1,12.668-27.586l5.135-7.3-39.415-39.506s-4.857-43.974-4.857-47.618C4143.466,725.407,4126.5,724.69,4124.594,728.274Z" transform="translate(-4122.217 -678.051)" fill="#07345a"/>
        <path id="Path_591" data-name="Path 591" d="M4372.5,777.445l49.152-50.081s6.848-47.358,7.335-49.142c.477-1.752,12.683-2.7,17.6-3.178,1.579-.154-.826,50.441-3.179,58.922-2.779,10.019-39.931,55.668-39.931,55.668s-6.659,24.725-5.055,42.861c2.664,30.122,9.843,71.558,8.557,72.858-7.987,5.031-38.645,5.57-40.584,2.445C4344.968,873.288,4372.5,777.445,4372.5,777.445Z" transform="translate(-4289.98 -641.816)" fill="#07345a"/>
        <path id="Path_592" data-name="Path 592" d="M4346.691,964.475l-1.326,9.838s-2.97,14.174.852,16.907,16.252-17.311,16.252-17.311l-1.313-24.929Z" transform="translate(-4279.967 -838.203)" fill="#f7a491"/>
        <path id="Path_593" data-name="Path 593" d="M4364.876,957.059c-3.156,8.5-10.676,13.73-16.014,15.757l1.125-8.341,14.465-15.5Z" transform="translate(-4283.263 -838.203)" fill="#f47458"/>
        <path id="Path_594" data-name="Path 594" d="M4326.443,854.664a13.148,13.148,0,0,0-17.207,10.477,99.348,99.348,0,0,0-1.067,12.623c-.208,11.491,5.74,22.674,10.958,22.674s19.639-7.438,20.161-23.752C4339.611,866.614,4334.582,857.465,4326.443,854.664Z" transform="translate(-4254.086 -770.078)" fill="#f7a491"/>
        <path id="Path_595" data-name="Path 595" d="M4404.526,927.188c0,2.535,1.68,4.59,3.753,4.59s3.753-2.055,3.753-4.59-1.681-4.59-3.753-4.59S4404.526,924.653,4404.526,927.188Z" transform="translate(-4323.168 -819.29)" fill="#f7a491"/>
        <path id="Path_596" data-name="Path 596" d="M4278.485,827.378c-5.39,4.27-7.279,10.757-4.218,14.49s9.91,3.3,15.3-.972,7.279-10.757,4.219-14.49S4283.875,823.108,4278.485,827.378Z" transform="translate(-4228.735 -748.509)" fill="#07345a"/>
        <ellipse id="Ellipse_51" data-name="Ellipse 51" cx="5.004" cy="3.36" rx="5.004" ry="3.36" transform="translate(63.843 79.009)" fill="#07345a"/>
        <path id="Path_597" data-name="Path 597" d="M4290.057,888.134a4.272,4.272,0,1,0,4.271-4.32A4.3,4.3,0,0,0,4290.057,888.134Z" transform="translate(-4241.104 -791.485)" fill="#07345a"/>
        <path id="Path_598" data-name="Path 598" d="M4328.353,966.381l11.516-.188s-.194,4.378-5.256,4.607C4328.441,971.08,4328.353,966.381,4328.353,966.381Z" transform="translate(-4268.559 -850.543)" fill="#fff"/>
      </g>
      <path id="Path_599" data-name="Path 599" d="M1911.382,783.3c-.172-.342-.274-.529-.274-.529l.015-.144q-.757-1.877-1.664-3.727c-4.025-8.165-13.983-12.8-23.065-12.81a28.913,28.913,0,0,0-8.125,1.105c-3.719,1.672-12.808,7.461-15.173,24.7a27.674,27.674,0,0,0,3.284,17.307c-2.447,1.537-5.661,4.654-7.99,10.946-4.278,11.558-25.667,14.126-27.806,29.537s20.106,43.235,43.634,25.256c17.91-13.686,15-39.77,12.586-51.448a26.246,26.246,0,0,0,17.358-3.773c7.342-4.438,10.32-10.426,11.118-16.289A59.753,59.753,0,0,0,1911.382,783.3Z" transform="translate(-1350.534 -655.858)" fill="#f7cc7f"/>
      <g id="Group_836" data-name="Group 836" transform="translate(514.273 151.877)">
        <path id="Path_600" data-name="Path 600" d="M1977.5,929.035c-14.578,0-24.963-13.206-25.4-13.768a1.284,1.284,0,0,1,2.029-1.573h0c.1.127,10.065,12.773,23.369,12.773a1.284,1.284,0,0,1,0,2.568Z" transform="translate(-1951.833 -913.197)" fill="#184655"/>
      </g>
      <path id="Path_601" data-name="Path 601" d="M2098.355,1166.5a2.467,2.467,0,0,1-.415-.387c-3.976-4.675-37.35-43.942-38.326-46.071-.881-1.922-8.5-40.884-8.5-40.884l18.714,2.53,5.809,36.007c.993,1.641,20.422,31.364,20.422,31.364s3.417,5.547,5.634,8.694c.884.394,1.728.759,2.436,1.042a22.766,22.766,0,0,0,4.36.934,25.9,25.9,0,0,1,5.492,1.419c.8.452,2.423,1.437,3.391,2.042s2.128,1.276,2.6,1.658a5.846,5.846,0,0,0,1.659.619.977.977,0,0,1,.214,1.807,4.246,4.246,0,0,1-2.637-.051c-2.048-.482-4.823-2.362-4.883-2.048s3.317,4.885,3.67,5.432,4.249,5.882,4.662,7.167-.317,1.756-1.008,1.4c-.6-.307-6.523-7.277-6.523-7.277s-.758-.887-.85-.269,5.277,6.957,5.9,8.052.526,2.12-.648,1.938c-1.428-.222-6.742-7.342-6.742-7.342s-.681-.881-.935-.47,4.406,5.727,4.59,6.414a.928.928,0,0,1-1.337,1.116c-1.221-.457-5.91-6.853-5.91-6.853s-.494-.385-.549-.03,3.592,5.172,3.568,5.993a.644.644,0,0,1-.639.682c-1.321.275-4.22-4.9-6.263-6.848s-3.416-5.095-6.105-7.148C2099.04,1167.008,2098.62,1166.7,2098.355,1166.5Z" transform="translate(-1508.737 -880.301)" fill="#f8a492"/>
      <path id="Path_602" data-name="Path 602" d="M1881.707,1186.62a2.451,2.451,0,0,1-.22-.524c-1.706-5.9-16.011-55.417-16.027-57.76-.014-2.114,9.039-40.767,9.039-40.767l16.023,10-9.488,35.215c.232,1.9,5.741,36.991,5.741,36.991s.838,6.462,1.567,10.243c.644.723,1.264,1.4,1.793,1.951a22.774,22.774,0,0,0,3.592,2.644,25.948,25.948,0,0,1,4.424,3.552c.545.741,1.619,2.306,2.253,3.256s1.417,2.039,1.692,2.582a5.842,5.842,0,0,0,1.258,1.247.977.977,0,0,1-.547,1.735,4.249,4.249,0,0,1-2.383-1.131c-1.67-1.281-3.427-4.137-3.611-3.875s1.019,5.817,1.115,6.461,1.459,7.109,1.307,8.451-1.01,1.47-1.494.861c-.417-.524-2.959-9.316-2.959-9.316s-.327-1.12-.665-.594,1.955,8.513,2.075,9.768-.391,2.149-1.386,1.5c-1.211-.79-3.133-9.465-3.133-9.465s-.26-1.083-.659-.813,1.665,7.033,1.551,7.735a.928.928,0,0,1-1.678.468c-.925-.919-2.574-8.678-2.574-8.678s-.292-.553-.488-.253,1.152,6.192.793,6.931a.644.644,0,0,1-.863.359c-1.317-.293-1.835-6.2-2.9-8.818s-1.023-6.049-2.632-9.027C1882.123,1187.362,1881.868,1186.907,1881.707,1186.62Z" transform="translate(-1375.639 -886.329)" fill="#f8a492"/>
      <path id="Path_603" data-name="Path 603" d="M1948.5,984.837s-15.712-1-21.928,5.767,13.789,60.288,14.919,68.9-10.937,32.606-10.937,32.606,44.906,13.408,55.454,6.437c0,0-1.691-69.012-2.821-75.163s-10.548-31.165-12.809-33.626S1948.5,984.837,1948.5,984.837Z" transform="translate(-1418.596 -812.642)" fill="#184655"/>
      <path id="Path_604" data-name="Path 604" d="M1894.471,1049.574s13.224-26.254,14.641-35.157-6.381-19.92-14.341-19.067-18.913,41.429-18.913,41.429Z" transform="translate(-1383.093 -820.182)" fill="#f47458"/>
      <path id="Path_605" data-name="Path 605" d="M2001.908,907.13s-.086.476-.24,1.285c-.74,3.882-3.589,16.759-5.514,20.3-2.326,4.278,7.964,17.924,17.868,16.258,2.948-.5-2.492-12.537-2.231-13.813.5-2.442,1.179-5.773,1.874-9.188.392-1.927.788-3.88,1.161-5.717,1.059-5.218,1.924-9.485,1.924-9.485Z" transform="translate(-1469.095 -756.712)" fill="#f7a491"/>
      <path id="Path_606" data-name="Path 606" d="M2015.333,908.415c.154-.809.24-1.285.24-1.285l14.841-.36s-.864,4.268-1.923,9.485c-.37,1.826-.765,3.768-1.155,5.684a14.053,14.053,0,0,1-7.086-3.457,18.193,18.193,0,0,1-5.367-7.767C2015.066,909.8,2015.219,909.017,2015.333,908.415Z" transform="translate(-1482.761 -756.712)" fill="#f47458"/>
      <path id="Path_607" data-name="Path 607" d="M2011.405,792s-7-.786-11.38,4.731-9.111,22.581,1.782,31.859,21.654-1.224,23.25-12.359S2027.273,791.6,2011.405,792Z" transform="translate(-1468.604 -674.408)" fill="#f7a491"/>
      <path id="Path_608" data-name="Path 608" d="M2097.1,861.71c-1.3,2.459-3.482,3.821-4.874,3.041s-1.466-3.4-.166-5.864,3.482-3.821,4.874-3.042S2098.4,859.251,2097.1,861.71Z" transform="translate(-1537.42 -720.047)" fill="#f7a491"/>
      <path id="Path_609" data-name="Path 609" d="M1995.621,785.222s-9.345,16.227-16.031,16.976-7.563,9.372-7.563,9.372,2.39-19.868,9.009-23.7S1995.621,785.222,1995.621,785.222Z" transform="translate(-1452.037 -669.45)" fill="#f7cc7f"/>
      <path id="Path_610" data-name="Path 610" d="M1987.227,848.434c.544,2.882-.55,5.524-2.443,5.9s-3.867-1.651-4.411-4.533.549-5.524,2.442-5.9S1986.683,845.552,1987.227,848.434Z" transform="translate(-1457.921 -711.609)" fill="#f7a491"/>
      <path id="Path_611" data-name="Path 611" d="M2033.161,893.946l9.954,2.129s-1.037,3.734-5.442,2.925C2032.3,898.012,2033.161,893.946,2033.161,893.946Z" transform="translate(-1495.828 -747.519)" fill="#fff"/>
      <g id="Group_837" data-name="Group 837" transform="translate(252.155 112.615)">
        <path id="Path_612" data-name="Path 612" d="M1263.455,958.443s22.5,2.382,28.466,8.674l-11.479,58.084a61.172,61.172,0,0,0-1.144,13.357c.3,12.139.768,37.364-.179,45.568-2.621,22.719-61.607.9-70.343-2.106,0,0,13.116-101.142,22.091-116.709,2.991-5.188,16.625-5.4,16.625-5.4Z" transform="translate(-1157.014 -906.372)" fill="#f47458"/>
        <path id="Path_613" data-name="Path 613" d="M1025.994,797.787c.83-1.757,8.228,3.442,9.867,2.453s-6.627-9.323-5.783-10.78c1.553-2.684,9.615,8.57,10.407,7.381s-6.948-13.2-4.184-13.865,6.728,13.3,8.146,12.4-4.853-12.647-2.177-15.043c1.43-1.28,8.173,21.44,10.619,22.384s5.2-8.976,7.5-8.586-7.549,18.244-7.066,19.638,9.5,30.54,14.828,39.344c3.2-1.532,6.325-3.073,9.3-4.575,1.2,6.761,3.955,12.667,5.526,19.3-10.333,4.54-22.178,9.045-25.179,7.941-9.137-3.364-13.644-47.717-15.111-55.993s-5.374-9.907-7.6-14.256S1025.164,799.544,1025.994,797.787Z" transform="translate(-1025.932 -778.645)" fill="#f48c7f"/>
        <path id="Path_614" data-name="Path 614" d="M1224.675,972.248l13.1,15.94s-19.039,12.834-36.175,20.364c-1.571-6.636-5.445-17.038-6.642-23.8A273.3,273.3,0,0,1,1224.675,972.248Z" transform="translate(-1147.112 -916.269)" fill="#f47458"/>
        <path id="Path_615" data-name="Path 615" d="M1588.4,792.017c-.83-1.757-8.228,3.443-9.867,2.453s6.627-9.323,5.783-10.78c-1.553-2.683-9.614,8.57-10.408,7.381s6.948-13.2,4.184-13.865-6.727,13.3-8.146,12.4,4.853-12.647,2.177-15.043c-1.43-1.28-8.173,21.441-10.618,22.385s-5.2-8.976-7.5-8.586,7.549,18.244,7.067,19.638-9.5,30.54-14.828,39.344c-3.2-1.532-6.326-3.073-9.3-4.575-1.2,6.761-4.4,13.165-5.972,19.8,10.332,4.54,22.625,8.548,25.625,7.442,9.137-3.364,13.644-47.717,15.111-55.993s5.374-9.907,7.6-14.256S1589.23,793.774,1588.4,792.017Z" transform="translate(-1387.995 -774.509)" fill="#f48c7f"/>
        <path id="Path_616" data-name="Path 616" d="M1446.858,967.421l-2.4,36.024s9.266-7.517,26.4.013c1.571-6.636,5.445-17.039,6.641-23.8A228.119,228.119,0,0,0,1446.858,967.421Z" transform="translate(-1325.974 -912.808)" fill="#f47458"/>
      </g>
      <path id="Path_617" data-name="Path 617" d="M1355.643,881.82l3.191,21.282s-11.654,25.34-18.611,23.143c-5.837-1.844-2.246-24.266-2.246-24.266s3.182-12.041,2.228-18.067S1355.643,881.82,1355.643,881.82Z" transform="translate(-996.7 -737.921)" fill="#f7a491"/>
      <path id="Path_618" data-name="Path 618" d="M1347.58,883.912c-.954-6.025,15.438-2.093,15.438-2.093l.264,1.765a9.82,9.82,0,0,1-1.777,2.966,21.47,21.47,0,0,1-14.334,6.563A33.245,33.245,0,0,0,1347.58,883.912Z" transform="translate(-1004.075 -737.921)" fill="#f47458"/>
      <g id="Group_838" data-name="Group 838" transform="translate(333.641 96.168)">
        <path id="Path_619" data-name="Path 619" d="M1341.762,761.823c.463-.17,3.714,24.239-2.455,30.955s-18.186,8.914-22.5,3.625c-4.768-5.851-4.529-32.085,5.061-38.994S1341.762,761.823,1341.762,761.823Z" transform="translate(-1313.77 -744.201)" fill="#f7a491"/>
        <path id="Path_620" data-name="Path 620" d="M1334.2,716.561a26.582,26.582,0,0,1,13.978,8.066c3.365.4,7.94,2.285,12.664,10.2,5.808,9.731,1.519,20.513-5.243,25.8s-6.685,11.43-6.685,11.43l-1.051-3.191a17.865,17.865,0,0,1-.847-7.444,14.688,14.688,0,0,1,1.094-4.475c1.626-3.533-3.494-5.88-4.929-8.819-1.105-2.263-1.159-7.44-2.9-11.181l-2.08-2.855s-4.8-3.778-9.492-2.712S1324.685,714.6,1334.2,716.561Z" transform="translate(-1322.442 -716.41)" fill="#13375b"/>
        <path id="Path_621" data-name="Path 621" d="M1388.122,830.276c-.049,2.978,1.289,5.416,2.988,5.445s3.117-2.361,3.166-5.339-1.289-5.416-2.988-5.445S1388.171,827.3,1388.122,830.276Z" transform="translate(-1367.072 -794.214)" fill="#f7a491"/>
      </g>
      <path id="Path_622" data-name="Path 622" d="M1325.46,871.332l8.055,1.669a3.6,3.6,0,0,1-4.383,2.389C1324.786,874.62,1325.46,871.332,1325.46,871.332Z" transform="translate(-988.483 -731.307)" fill="#fff"/>
      <path id="Path_623" data-name="Path 623" d="M929.5,1030.178l1.115,1a1.369,1.369,0,0,0,1.928-.048l19.792-21.831a1.354,1.354,0,0,0-.149-1.914l-1.115-1a1.369,1.369,0,0,0-1.928.048l-19.792,21.831A1.354,1.354,0,0,0,929.5,1030.178Z" transform="translate(-704.304 -827.859)" fill="#13375b"/>
      <path id="Path_624" data-name="Path 624" d="M688.634,1027.891c2.645-2.158,23.1,6.849,22.843,9.984s14.275,33.531,14.275,33.531l25.117-20.095.01.006c.222-.727,2.6-8.542,2.719-9.94.122-1.467,4.366-4.033,6.337-3.655s-1.686,2.859-1.926,3.314c-.653,1.24,1.874,1.705,1.874,1.705s7.257-4,7.411-6.347,1.652-7.276,3.22-6.246c.809.532.8,4.027.549,5.685.466-1.882,1.126-4.008,1.769-4.219,1.174-.385,1.758,1.114,1.545,1.849s-2.109,8.729-2.685,9.628c-.563.879-12.283,10.353-13.971,12.41,0,0-32.487,37.265-34.8,38.24-2.029.855-9.266-11.987-16.1-20.513S680.367,1034.634,688.634,1027.891Z" transform="translate(-530.533 -843.307)" fill="#f7a491"/>
      <path id="Path_625" data-name="Path 625" d="M738.465,982.4l-24.279,2.487s-1.113-19.972-1.113-29.5c0-11.558.981-26.445,2.372-26.125,3.9.9,9.162,3.062,12.292,7.378C738.569,951.575,738.465,982.4,738.465,982.4Z" transform="translate(-549.487 -772.835)" fill="#13375b"/>
      <path id="Path_626" data-name="Path 626" d="M608,951.4c.509,3.524,9.842,99.326,9.842,99.326-44.206,21.423-68.6,3.816-68.6,3.816s1.447-67.273-.287-76.43c-1.147-6.058-2.577-46.314,1.335-47.442a97.653,97.653,0,0,1,17.052-3.637c5.356-.558,26.163-.881,29.885.373A47.628,47.628,0,0,1,608,951.4Z" transform="translate(-430.946 -770.889)" fill="#466eb6"/>
      <g id="Group_839" data-name="Group 839" transform="translate(189.442 225.448)">
        <path id="Path_627" data-name="Path 627" d="M807.348,1198.064a5.737,5.737,0,0,0,.667-.5c-.786-9.386-.644-18.48,2.291-21.555-.07-.147-.712-1.516-1.382-2.935-3.4,2.641-5.019,9.655-4.385,21.042a19.514,19.514,0,0,0,.449,2.358C805.974,1197.563,806.869,1198.266,807.348,1198.064Z" transform="translate(-804.404 -1173.076)" fill="#f7a491"/>
      </g>
      <path id="Path_628" data-name="Path 628" d="M393.707,1108.461a2.679,2.679,0,0,1-.011-.617c.651-6.634,6.141-62.346,7.066-64.714.835-2.138,25.456-37.473,25.456-37.473l12.1,16.544-23.679,31.692c-.531,2.014-9.074,39.622-9.074,39.622s-1.751,6.855-2.535,10.961c.358.989.709,1.924,1.02,2.69a24.738,24.738,0,0,0,2.551,4.114,28.2,28.2,0,0,1,3.024,5.366c.251.968.7,2.978.959,4.192s.607,2.627.665,3.285a6.375,6.375,0,0,0,.765,1.765,1.059,1.059,0,0,1-1.247,1.53c-.86-.287-1.53-1.4-1.943-2.1-1.165-1.966-1.787-5.554-2.076-5.364s-1.311,6.278-1.472,6.966-1.386,7.758-2.077,9.05-1.606,1.076-1.849.267c-.209-.7.763-10.588.763-10.588s.121-1.262-.429-.868-1.451,9.373-1.834,10.687-1.256,2.01-2,.954c-.9-1.284.649-10.808.649-10.808s.174-1.2-.336-1.086-1.148,7.764-1.545,8.426a1,1,0,0,1-1.875-.2c-.563-1.3.894-9.79.894-9.79s-.072-.676-.39-.451-1.327,6.709-1.984,7.309a.7.7,0,0,1-1.013.015c-1.207-.826.643-6.995.625-10.062s1.4-6.513.977-10.165C393.829,1109.377,393.755,1108.815,393.707,1108.461Z" transform="translate(-319.197 -827.605)" fill="#f8a492"/>
      <path id="Path_629" data-name="Path 629" d="M445.318,981.906l21.032,14.169s11.854-17.7,18.217-24c7.971-7.894-2.9-32.075-8.039-30.707C465.04,944.427,445.318,981.906,445.318,981.906Z" transform="translate(-357.532 -781.475)" fill="#466eb6"/>
      <path id="Path_630" data-name="Path 630" d="M614.513,852l-3.146,20.805s11.489,24.773,18.347,22.624c5.755-1.8,2.214-23.722,2.214-23.722s-3.137-11.771-2.2-17.661S614.513,852,614.513,852Z" transform="translate(-476.573 -716.566)" fill="#f7a491"/>
      <path id="Path_631" data-name="Path 631" d="M637.038,854.049c.941-5.891-15.219-2.046-15.219-2.046l-.261,1.725a9.587,9.587,0,0,0,1.752,2.9,21.246,21.246,0,0,0,14.13,6.416A32.238,32.238,0,0,1,637.038,854.049Z" transform="translate(-483.879 -716.566)" fill="#f47458"/>
      <path id="Path_632" data-name="Path 632" d="M672.171,837.39l9.165-.476a4.021,4.021,0,0,1-4.056,3.83C672.373,841.142,672.171,837.39,672.171,837.39Z" transform="translate(-520.164 -706.632)" fill="#fff"/>
      <path id="Path_633" data-name="Path 633" d="M2643.283,803c10.9-12.951,30.088-15.344,39.368-.172a37.55,37.55,0,0,1,4.725,13.06c1.229,10.746-2.81,20.631-1.265,31.28a67.783,67.783,0,0,1-10.9.2l-.679-7.094-2.45,6.842c-11.718-1.189-26.711-5.419-44.168-16.206A88.823,88.823,0,0,1,2643.283,803Z" transform="translate(-1922.245 -674.679)" fill="#184655"/>
      <path id="Path_634" data-name="Path 634" d="M2828.033,1108.213s26.561,33.079,32.719,40.864,32.839,31.981,33.906,32.887,18.724-3,18.545-.742-9.136,1.53-8.88,4.1,17.892,16.311,16.5,17.21c-2.606,1.684-11.112-8-12.181-6.981s9.8,9.289,8.639,11.627-9.571-8.788-10.747-8.447,6.518,11.511,3.917,12.062c-1.412.3-6.6-10.1-7.8-8.908s1.551,9.747-.111,9.935-1.342-7.474-4.512-10.968-3.676-7.641-10.323-11.735-35.822-17.666-46.229-29.926-29.549-36.684-29.549-36.684Z" transform="translate(-2054.167 -901.128)" fill="#f7a491"/>
      <path id="Path_635" data-name="Path 635" d="M2498.657,667.22s-18.958-37.951-23.458-46.8-15.338-43.2-15.716-44.544,10.548-15.758,8.422-16.539-5.207,7.661-7.438,6.354-7.345-23.069-8.744-22.18c-2.618,1.664,2.623,13.436,1.254,13.983s-4.344-12.788-6.955-12.706,3.986,12.367,3.185,13.293-7.736-10.731-9.323-8.6c-.862,1.158,6.415,10.218,4.835,10.806s-8.208-5.481-9.073-4.05,6.23,4.342,8.08,8.681,5.407,6.532,6.349,14.282,1.086,39.927,7.877,54.5,20.986,42.171,20.986,42.171Z" transform="translate(-1784.356 -496.272)" fill="#f7a491"/>
      <path id="Path_636" data-name="Path 636" d="M2587.6,995.88s-9.434-22.6-10.944-26.35c0,0,13.175-11.83,21.039-10.908,0,0,10.19,16.139,16.2,16.721s27.141,1.489,30.845,3.712,19.423,26.09,19.423,26.09-14.125,14.265-19.807,14.236c0,0-3.862-9.634-5.182-7.878s.195,49.287-2.443,52.138c-2.44,2.638-42.058,5.9-47.459.888,0,0-.4-2.029-3.452-47.633C2585.176,1007.292,2587.6,995.88,2587.6,995.88Z" transform="translate(-1885.499 -793.849)" fill="#f7cc7f"/>
      <path id="Path_637" data-name="Path 637" d="M2702.984,932.252s-2.277,11.781-1.822,16.428-1.737,19.624-11.573,19.673-1.868-19.042-.941-23.6,1.146-18.65,1.146-18.65Z" transform="translate(-1962.973 -770.576)" fill="#f7a491"/>
      <path id="Path_638" data-name="Path 638" d="M2701.914,933.181c.153-3.856.2-7.073.2-7.073l13.19,6.145s-.466,2.409-.934,5.478C2708.6,938.891,2704.416,936.754,2701.914,933.181Z" transform="translate(-1975.297 -770.576)" fill="#f47458"/>
      <path id="Path_639" data-name="Path 639" d="M2714.513,823.62s6.14,2,7.628,8.4-1.273,22.807-14,26.577-17.57-9.333-14.528-19.47S2701.444,817.2,2714.513,823.62Z" transform="translate(-1968.717 -695.794)" fill="#f7a491"/>
      <path id="Path_640" data-name="Path 640" d="M2769.887,821.668s1.417,17.459,6.7,20.659,2.624,10.912,2.624,10.912,5.81-17.914,1.8-23.724S2769.887,821.668,2769.887,821.668Z" transform="translate(-2024.026 -695.702)" fill="#184655"/>
      <path id="Path_641" data-name="Path 641" d="M2779.489,897.986c-1.585,2.257-1.711,4.937-.282,5.985s3.873.067,5.458-2.191,1.711-4.937.282-5.985S2781.074,895.728,2779.489,897.986Z" transform="translate(-2029.995 -748.543)" fill="#f7a491"/>
      <path id="Path_642" data-name="Path 642" d="M2712.687,910.723l9.164,3.644a4.313,4.313,0,0,1-5.673,1.912C2711.208,914.468,2712.687,910.723,2712.687,910.723Z" transform="translate(-1982.872 -759.546)" fill="#fff"/>
      <path id="Path_643" data-name="Path 643" d="M3698.089,788.636s20.577-33.979,25.449-41.894,17.6-39.155,18.052-40.384-8.647-15.525-6.6-16.091,4.278,7.554,6.459,6.505,8.607-20.977,9.846-20.038c2.317,1.756-3.469,12.345-2.232,12.96s5.025-11.607,7.456-11.329-4.66,11.241-3.983,12.167,8.035-9.425,9.354-7.312c.716,1.148-6.764,9.047-5.334,9.718s8.077-4.487,8.775-3.084-6.145,3.576-8.2,7.485-5.543,5.683-7.011,12.847-4.047,37.2-11.493,50.286-22.79,37.764-22.79,37.764Z" transform="translate(-2689.459 -591.775)" fill="#f7a491"/>
      <path id="Path_644" data-name="Path 644" d="M3341.925,733.119c3.36,8.948-1.954,15.62-5.65,24.432-2.481,5.916,2.99,15.311,9.174,19.638,15.664,10.96,19.339,11.244,18.206,26.13-2.728,35.854,39.793,20.57,46.633,19.43s12-.831,15.269-3.111c9.849-6.872,19.093-27.508,17.36-44.89s-22.265-11.41-26.961-19.391,9.5-17.92-2.6-31.248c-34.732-38.277-70.985-12.6-72.279,2.033A15.679,15.679,0,0,0,3341.925,733.119Z" transform="translate(-2429.634 -611.386)" fill="#0e2e35"/>
      <path id="Path_645" data-name="Path 645" d="M3188.564,1072.684s-41.647,1.037-50.792,1.787-42.323-2.011-43.608-2.16-9.785-14.543-11.2-13,4.729,7.137,2.83,8.588-22.306-1.8-22.036-.29c.507,2.823,12.413,2.464,12.4,3.826s-12.461-.764-13.305,1.5,11.975.922,12.487,1.932-11.889,2.858-10.621,4.963c.689,1.142,10.987-1.909,10.937-.351s-7.563,5.1-6.642,6.342,5.9-3.808,10.256-3.87,7.481-2.337,14.44-.428,30.82,8.617,45.528,10.771c15.039,2.2,49.984,3.821,49.984,3.821Z" transform="translate(-2234.029 -865.988)" fill="#f7a491"/>
      <path id="Path_646" data-name="Path 646" d="M3584.148,1117.094c2.089-22.148-2.78-26.448-3.09-28.727,2.078-7.135,9.66-17.713,11.249-20.7,0,0-10.284-11.651-17.909-11.553,0,0-8.113,10.245-14.134,13.385a14.959,14.959,0,0,1-3.028.9c-5.814-.041-26.127-.657-29.919.474l-4.563,31.58c1.093,1.8,2.418,37.893,4.666,40.863s41.656,16.3,47.076,12.817C3574.711,1155.994,3582.84,1130.966,3584.148,1117.094Z" transform="translate(-2563.761 -863.775)" fill="#f7a491"/>
      <path id="Path_647" data-name="Path 647" d="M3492.9,1106.446c-3.747-1.79-31.121-1.732-31.121-1.732s-3.625,21.374-.564,25.912c0,0,19.7,7.309,19.014,9.3Z" transform="translate(-2518.76 -898.619)" fill="#50bfa5"/>
      <path id="Path_648" data-name="Path 648" d="M3578.265,1144.059c2.392-8.376,5.165-19.349,5.884-26.965,2.089-22.148-2.78-26.448-3.089-28.727,2.078-7.135,9.659-17.713,11.249-20.7,0,0-10.284-11.65-17.91-11.552,0,0-8.113,10.244-14.134,13.385a14.959,14.959,0,0,1-3.028.9c-5.814-.041-26.127-.657-29.919.474l-4.563,31.58c.751,1.236,1.611,18.643,2.8,30.391C3531.865,1135.8,3549.54,1142.773,3578.265,1144.059Z" transform="translate(-2563.761 -863.775)" fill="#50bfa5"/>
      <path id="Path_649" data-name="Path 649" d="M3597.748,1051.369s2.1,10.89,1.684,15.185,1.606,18.139,10.7,18.185,1.727-17.6.87-21.81-1.059-17.239-1.059-17.239Z" transform="translate(-2617.524 -856.305)" fill="#f7a491"/>
      <path id="Path_650" data-name="Path 650" d="M3610.128,1052.227c-.142-3.564-.188-6.537-.188-6.537l-12.192,5.679s.43,2.227.863,5.064C3603.948,1057.506,3607.815,1055.53,3610.128,1052.227Z" transform="translate(-2617.524 -856.305)" fill="#f47458"/>
      <path id="Path_651" data-name="Path 651" d="M3564.4,955.946a15.1,15.1,0,0,0-6.417,8.256c-1.717,5.649.238,20.226,12.374,23.744s17.394-8.026,14.894-17.05S3577.312,950.443,3564.4,955.946Z" transform="translate(-2588.629 -790.936)" fill="#f7a491"/>
      <path id="Path_652" data-name="Path 652" d="M3647.984,988.275c-.237,2.424-1.575,4.276-2.987,4.138s-2.364-2.216-2.126-4.64,1.575-4.276,2.987-4.138S3648.222,985.851,3647.984,988.275Z" transform="translate(-2649.847 -811.812)" fill="#f7a491"/>
      <path id="Path_653" data-name="Path 653" d="M3554.549,956.989s-2.2,16.261-7.458,19.2-3.057,10.148-3.057,10.148-4.768-16.75-.611-22.13S3554.549,956.989,3554.549,956.989Z" transform="translate(-2577.358 -792.714)" fill="#0e2e35"/>
      <path id="Path_654" data-name="Path 654" d="M3555.855,1026.784c1.426,2.118,1.421,4.617-.012,5.581s-3.748.028-5.174-2.091-1.421-4.617.012-5.581S3554.43,1024.666,3555.855,1026.784Z" transform="translate(-2583.009 -840.98)" fill="#f7a491"/>
      <path id="Path_655" data-name="Path 655" d="M3603.191,1033.276l9.7-3.3a4.523,4.523,0,0,1-3.17,5.4C3604.57,1037.3,3603.191,1033.276,3603.191,1033.276Z" transform="translate(-2621.426 -845.038)" fill="#fff"/>
      <rect id="Rectangle_163" data-name="Rectangle 163" width="1233.19" height="3.157" transform="translate(55.018 326.165)" fill="#0e2e35"/>
      <g id="Group_840" data-name="Group 840" transform="translate(240.039 24.705)">
        <ellipse id="Ellipse_52" data-name="Ellipse 52" cx="50.072" cy="35.731" rx="50.072" ry="35.731" fill="#f7cc7f"/>
      </g>
      <g id="Group_841" data-name="Group 841" transform="translate(484.177)">
        <ellipse id="Ellipse_53" data-name="Ellipse 53" cx="64.932" cy="46.335" rx="64.932" ry="46.335" fill="#f47458"/>
      </g>
      <g id="Group_842" data-name="Group 842" transform="translate(0 6.834)">
        <ellipse id="Ellipse_54" data-name="Ellipse 54" cx="64.932" cy="46.335" rx="64.932" ry="46.335" fill="#86b1f2"/>
      </g>
      <g id="Group_843" data-name="Group 843" transform="translate(745.86 41.273)">
        <ellipse id="Ellipse_55" data-name="Ellipse 55" cx="51.132" cy="36.488" rx="51.132" ry="36.488" fill="#96d9c9"/>
      </g>
      <g id="Group_844" data-name="Group 844" transform="translate(939.385 3.725)">
        <ellipse id="Ellipse_56" data-name="Ellipse 56" cx="58.789" cy="41.951" rx="58.789" ry="41.951" fill="#94dcf0"/>
      </g>
      <g id="Group_845" data-name="Group 845" transform="translate(1155.23 20.115)">
        <ellipse id="Ellipse_57" data-name="Ellipse 57" cx="50.838" cy="36.278" rx="50.838" ry="36.278" fill="#81b4da"/>
      </g>
      <g id="Group_846" data-name="Group 846" transform="translate(107.026 71.852)">
        <path id="Path_656" data-name="Path 656" d="M513.283,641.654,528.6,653.212l-9.435-22.695Z" transform="translate(-513.283 -630.517)" fill="#86b1f2"/>
      </g>
      <g id="Group_847" data-name="Group 847" transform="translate(305.291 78.891)">
        <path id="Path_657" data-name="Path 657" d="M1232.225,680.6l-18.6-20.909,13.869-4.308Z" transform="translate(-1213.628 -655.384)" fill="#f7cc7f"/>
      </g>
      <g id="Group_848" data-name="Group 848" transform="translate(562.394 74.584)">
        <path id="Path_658" data-name="Path 658" d="M2121.813,675.815l25.637-35.648h-15.13Z" transform="translate(-2121.813 -640.167)" fill="#f47458"/>
      </g>
      <path id="Path_659" data-name="Path 659" d="M2863.989,730.726l-11.768,21.434,21.854-15.97Z" transform="translate(-2083.052 -630.505)" fill="#96d9c9"/>
      <g id="Group_849" data-name="Group 849" transform="translate(973.912 74.584)">
        <path id="Path_660" data-name="Path 660" d="M3581.764,640.167l-6.312,18.087L3590.2,645.21Z" transform="translate(-3575.452 -640.167)" fill="#94dcf0"/>
      </g>
      <g id="Group_850" data-name="Group 850" transform="translate(1192.813 77.761)">
        <path id="Path_661" data-name="Path 661" d="M4348.69,651.39l7.848,29.691,8.214-29.691Z" transform="translate(-4348.69 -651.39)" fill="#81b4da"/>
      </g>
      <g id="Group_851" data-name="Group 851" transform="translate(26.078 41.929)">
        <path id="Path_662" data-name="Path 662" d="M227.343,548.448V526.3h2.85v9.5h8.063v-9.5h2.831v22.151h-2.831V537.9h-8.063v10.544Z" transform="translate(-227.343 -525.878)" fill="#fff"/>
        <path id="Path_663" data-name="Path 663" d="M293.511,548.448V526.3H306v2.065h-9.638v7.612h7.069v2.034h-7.069V546.4h9.975v2.049Z" transform="translate(-274.779 -525.878)" fill="#fff"/>
        <path id="Path_664" data-name="Path 664" d="M350.6,548.448V526.3h2.888v20.041h8.719v2.109Z" transform="translate(-315.709 -525.878)" fill="#fff"/>
        <path id="Path_665" data-name="Path 665" d="M402.4,548.448V526.3h2.888v20.041h8.719v2.109Z" transform="translate(-352.844 -525.878)" fill="#fff"/>
        <path id="Path_666" data-name="Path 666" d="M455.689,547.821a6.41,6.41,0,0,1-5.719-2.923q-1.931-2.924-1.932-8.593t1.932-8.585a7.082,7.082,0,0,1,11.438.008q1.95,2.909,1.95,8.577t-1.95,8.593A6.44,6.44,0,0,1,455.689,547.821Zm0-20.953a3.723,3.723,0,0,0-3.525,2.154q-1.125,2.153-1.125,6.76,0,5.28,1.1,7.612a3.874,3.874,0,0,0,7.069.09q1.116-2.244,1.116-7.18,0-4.9-1.116-7.171A3.689,3.689,0,0,0,455.689,526.868Z" transform="translate(-385.561 -524.819)" fill="#fff"/>
      </g>
      <g id="Group_852" data-name="Group 852" transform="translate(262.083 49.006)">
        <path id="Path_667" data-name="Path 667" d="M1061,570.509V551.114h2.5v8.315h7.06v-8.315h2.479v19.395h-2.479v-9.232h-7.06v9.232Z" transform="translate(-1061 -550.747)" fill="#fff"/>
        <path id="Path_668" data-name="Path 668" d="M1122.794,569.959a5.613,5.613,0,0,1-5.008-2.56q-1.691-2.561-1.691-7.524t1.691-7.518a6.2,6.2,0,0,1,10.015.007q1.707,2.548,1.707,7.511T1127.8,567.4A5.638,5.638,0,0,1,1122.794,569.959Zm0-18.347a3.258,3.258,0,0,0-3.086,1.885,13.406,13.406,0,0,0-.985,5.919,16.827,16.827,0,0,0,.96,6.665,3.392,3.392,0,0,0,6.19.079,20.684,20.684,0,0,0,0-12.565A3.228,3.228,0,0,0,1122.794,551.612Z" transform="translate(-1100.498 -549.818)" fill="#fff"/>
        <path id="Path_669" data-name="Path 669" d="M1176.531,570.509V551.114h2.528v17.548h7.634v1.847Z" transform="translate(-1143.825 -550.747)" fill="#fff"/>
        <path id="Path_670" data-name="Path 670" d="M1215.271,570.509l5.271-19.395h3.431l5.319,19.395h-2.627l-1.412-5.71h-6.124l-1.412,5.71Zm4.4-7.53h5.073L1222.2,552.83Z" transform="translate(-1171.598 -550.747)" fill="#fff"/>
      </g>
      <g id="Group_853" data-name="Group 853" transform="translate(775.276 67.281)">
        <path id="Path_671" data-name="Path 671" d="M2880.492,634.512a5.613,5.613,0,0,1-5.008-2.56q-1.691-2.561-1.691-7.524t1.691-7.517a6.2,6.2,0,0,1,10.016.007q1.705,2.547,1.707,7.51t-1.707,7.524A5.639,5.639,0,0,1,2880.492,634.512Zm0-18.347a3.258,3.258,0,0,0-3.086,1.885,13.4,13.4,0,0,0-.986,5.92,16.823,16.823,0,0,0,.961,6.666,3.393,3.393,0,0,0,6.19.079,20.689,20.689,0,0,0,0-12.566A3.229,3.229,0,0,0,2880.492,616.165Z" transform="translate(-2873.793 -614.371)" fill="#fff"/>
        <path id="Path_672" data-name="Path 672" d="M2934.226,635.062V615.667h2.528v17.548h7.635v1.847Z" transform="translate(-2917.117 -615.3)" fill="#fff"/>
        <path id="Path_673" data-name="Path 673" d="M2972.969,635.062l5.271-19.395h3.431l5.319,19.395h-2.626l-1.413-5.71h-6.124l-1.412,5.71Zm4.4-7.53h5.074l-2.544-10.149Z" transform="translate(-2944.893 -615.3)" fill="#fff"/>
      </g>
      <g id="Group_854" data-name="Group 854" transform="translate(963.765 34.425)">
        <path id="Path_674" data-name="Path 674" d="M3539.607,519l5.27-19.395h3.431L3553.629,519H3551l-1.411-5.71h-6.125l-1.412,5.71Zm4.4-7.53h5.073l-2.545-10.149Z" transform="translate(-3539.607 -499.239)" fill="#fff"/>
        <path id="Path_675" data-name="Path 675" d="M3598.474,519V499.606H3601v17.548h7.635V519Z" transform="translate(-3581.809 -499.239)" fill="#fff"/>
        <path id="Path_676" data-name="Path 676" d="M3645.133,518.451a5.612,5.612,0,0,1-5.007-2.56q-1.692-2.561-1.691-7.524t1.691-7.517a6.2,6.2,0,0,1,10.015.007q1.708,2.547,1.708,7.51t-1.708,7.524A5.638,5.638,0,0,1,3645.133,518.451Zm0-18.347a3.257,3.257,0,0,0-3.086,1.885,13.4,13.4,0,0,0-.986,5.92,16.822,16.822,0,0,0,.961,6.665,3.392,3.392,0,0,0,6.189.079,20.664,20.664,0,0,0,0-12.565A3.228,3.228,0,0,0,3645.133,500.1Z" transform="translate(-3610.457 -498.31)" fill="#fff"/>
        <path id="Path_677" data-name="Path 677" d="M3698.4,519V499.606h2.495v8.315h7.06v-8.315h2.479V519h-2.479v-9.232h-7.06V519Z" transform="translate(-3653.449 -499.239)" fill="#fff"/>
        <path id="Path_678" data-name="Path 678" d="M3750.191,519l5.27-19.395h3.431L3764.213,519h-2.627l-1.411-5.71h-6.124l-1.413,5.71Zm4.4-7.53h5.073l-2.545-10.149Z" transform="translate(-3690.575 -499.239)" fill="#fff"/>
      </g>
      <g id="Group_855" data-name="Group 855" transform="translate(1175.992 45.104)">
        <path id="Path_679" data-name="Path 679" d="M4289.275,555.427V536.032h4.433a16.818,16.818,0,0,1,3.892.321,5.61,5.61,0,0,1,2.167,1.107,3.636,3.636,0,0,1,1.067,1.414,4.728,4.728,0,0,1,.377,1.911,4.3,4.3,0,0,1-.862,2.744,5.265,5.265,0,0,1-2.6,1.657,5.858,5.858,0,0,1,3.021,1.767,5.288,5.288,0,0,1-.919,7.137q-1.9,1.336-5.8,1.336Zm2.5-10.974h2.315a5.9,5.9,0,0,0,3.546-.891,3.086,3.086,0,0,0,1.2-2.646,2.672,2.672,0,0,0-1.142-2.442,7.741,7.741,0,0,0-3.933-.726h-1.986Zm0,9.206h2.511a6.449,6.449,0,0,0,3.81-.89,3.276,3.276,0,0,0,1.2-2.816,3.344,3.344,0,0,0-1.264-2.881,6.7,6.7,0,0,0-3.94-.929h-2.315Z" transform="translate(-4289.275 -536.032)" fill="#fff"/>
        <path id="Path_680" data-name="Path 680" d="M4345.475,548.643V536.032h2.5V548.46q0,3.509.779,4.544a3.373,3.373,0,0,0,2.85,1.035,3.3,3.3,0,0,0,2.808-1.054q.787-1.054.788-4.525V536.032h2.479v12.611a16.6,16.6,0,0,1-.288,3.68,4.063,4.063,0,0,1-.976,1.847,5.219,5.219,0,0,1-2.037,1.211,8.566,8.566,0,0,1-2.774.425,8.759,8.759,0,0,1-2.817-.425,5.083,5.083,0,0,1-2.027-1.211,3.793,3.793,0,0,1-.993-1.788A16.7,16.7,0,0,1,4345.475,548.643Z" transform="translate(-4329.565 -536.032)" fill="#fff"/>
        <path id="Path_681" data-name="Path 681" d="M4408.089,542.017q-.508-1.087-.968-2.206t-.886-2.272v17.889h-2.185V536.032h3.629l5.025,11q.572,1.309,1.066,2.508t.9,2.324c-.065-.576-.116-1.169-.146-1.781s-.05-1.432-.05-2.461v-11.59h2.182v19.395h-2.445Z" transform="translate(-4371.558 -536.032)" fill="#fff"/>
        <path id="Path_682" data-name="Path 682" d="M4457.985,555.427l5.271-19.395h3.431l5.32,19.395h-2.627l-1.412-5.71h-6.124l-1.413,5.71Zm4.4-7.53h5.072l-2.544-10.149Z" transform="translate(-4410.225 -536.032)" fill="#fff"/>
      </g>
      <g id="Group_856" data-name="Group 856" transform="translate(508.012 36.621)">
        <path id="Path_683" data-name="Path 683" d="M1941.963,506.473v15.565h-2.188v-13.88H1931.9v13.88h-2.188V506.473Z" transform="translate(-1929.716 -506.358)" fill="#fff"/>
        <path id="Path_684" data-name="Path 684" d="M1986.465,506.367a27.642,27.642,0,0,1,4.2-.3,7.388,7.388,0,0,1,4.753,1.293,4.03,4.03,0,0,1,1.484,3.256,4.371,4.371,0,0,1-1.307,3.326,7.4,7.4,0,0,1-5.181,1.708,8.173,8.173,0,0,1-1.76-.138v6.236h-2.188Zm2.188,7.506a8,8,0,0,0,1.81.161c2.641,0,4.25-1.177,4.25-3.325,0-2.056-1.584-3.049-4-3.049a9.932,9.932,0,0,0-2.062.162Z" transform="translate(-1970.4 -506.067)" fill="#fff"/>
        <path id="Path_685" data-name="Path 685" d="M2035.773,506.473v6.559c0,2.471-.05,4.5-.2,6.582l.051.023a59.744,59.744,0,0,1,3.144-5.15l5.483-8.014h2.188v15.565h-2.062V515.41c0-2.517.026-4.365.2-6.328l-.075-.023a46.374,46.374,0,0,1-3.144,5.242l-5.307,7.737h-2.339V506.473Z" transform="translate(-2004.27 -506.358)" fill="#fff"/>
        <path id="Path_686" data-name="Path 686" d="M2092.148,506.39a23.116,23.116,0,0,1,4-.323,7.469,7.469,0,0,1,4.653,1.131,3.174,3.174,0,0,1,1.409,2.748,3.756,3.756,0,0,1-2.867,3.418v.046a4.13,4.13,0,0,1,3.5,3.9,4.042,4.042,0,0,1-1.434,3.117c-1.182.993-3.094,1.455-5.86,1.455a27.712,27.712,0,0,1-3.4-.185Zm2.188,6.374h1.987c2.313,0,3.671-1.108,3.671-2.61,0-1.824-1.509-2.54-3.722-2.54a10.188,10.188,0,0,0-1.936.138Zm0,7.459a12.739,12.739,0,0,0,1.836.093c2.263,0,4.351-.763,4.351-3.025,0-2.125-1.987-3-4.376-3h-1.81Z" transform="translate(-2046.164 -506.067)" fill="#fff"/>
        <path id="Path_687" data-name="Path 687" d="M2149.06,514.74h-6.589v5.612h7.344v1.686h-9.531V506.473h9.154v1.686h-6.966v4.92h6.589Z" transform="translate(-2080.672 -506.358)" fill="#fff"/>
        <path id="Path_688" data-name="Path 688" d="M2182.735,508.182h-5.155v-1.709h12.55v1.709h-5.182v13.856h-2.213Z" transform="translate(-2107.411 -506.358)" fill="#fff"/>
      </g>
      <path id="Path_689" data-name="Path 689" d="M608.122,741.088a11.906,11.906,0,0,1,16.9,6.875,90.478,90.478,0,0,1,2.81,11.147c1.877,10.259-1.787,21.14-6.446,21.9s-18.627-3.8-21.494-18.331C598.126,753.707,601.268,744.782,608.122,741.088Z" transform="translate(-468.001 -636.929)" fill="#f7a491"/>
      <path id="Path_690" data-name="Path 690" d="M596.777,813.891c.373,2.27-.825,4.355-2.675,4.657s-3.653-1.293-4.026-3.563.825-4.355,2.675-4.657S596.4,811.621,596.777,813.891Z" transform="translate(-461.261 -687.546)" fill="#f7a491"/>
      <path id="Path_691" data-name="Path 691" d="M590.983,752.042s5.769-.525,6.553-4.625,5.272-13.919,15.291-13.974S602.363,728.75,601.647,729s-9.338,3.176-9.338,3.176-4.735,7.756-4.766,8.438.327,7.878.327,7.878Z" transform="translate(-459.493 -629.26)" fill="#0e2e35"/>
      <path id="Path_692" data-name="Path 692" d="M651.5,845.02l10.3-1.509s.342,3.96-4.17,4.755C652.137,849.235,651.5,845.02,651.5,845.02Z" transform="translate(-505.348 -711.362)" fill="#fff"/>
    </g>
    <path id="Path_693" data-name="Path 693" d="M821.25,117.2l7.337,2.809,5.747-5.594,8,3.733,4.29-7.851,9.235,3.821,4.839-6.741,9.485,2.219-.838,3.6-7.092-1.659-5.106,7.113-8.878-3.673-4.362,7.982-8.83-4.119-5.613,5.462-6.8-2.6-2.938,4.36-3.055-2.07Z" transform="translate(-488.534 -34.445)" fill="#466eb6"/>
    <path id="Path_694" data-name="Path 694" d="M2535.048,364.9l3.528-6.477-3.32-6.587a1.014,1.014,0,0,1,1.09-1.454l7.232,1.364,5.22-5.2a1.011,1.011,0,0,1,1.716.59l.942,7.319,6.546,3.372a1.016,1.016,0,0,1-.029,1.819l-6.651,3.16-1.174,7.286a1.011,1.011,0,0,1-1.734.534l-5.052-5.367-7.272,1.131A1.013,1.013,0,0,1,2535.048,364.9Z" transform="translate(-1720.354 -205.693)" fill="#f7cc7f"/>
    <g id="Group_859" data-name="Group 859" transform="translate(1360.54 121.065)">
      <g id="Group_858" data-name="Group 858">
        <path id="Path_695" data-name="Path 695" d="M4492.376,295.4a14.63,14.63,0,1,1-10.933-17.615A14.624,14.624,0,0,1,4492.376,295.4Z" transform="translate(-4463.5 -277.398)" fill="#f7cc7f"/>
        <path id="Path_696" data-name="Path 696" d="M4485.9,330.953a7.822,7.822,0,1,0,15.235,3.556Z" transform="translate(-4479.411 -315.792)" fill="#efefef"/>
      </g>
    </g>
    <g id="Group_868" data-name="Group 868" transform="translate(496.071 125.25)">
      <path id="Path_697" data-name="Path 697" d="M1453.375,343.776a7.36,7.36,0,1,1,7.852,6.852A7.374,7.374,0,0,1,1453.375,343.776Z" transform="translate(-1441.046 -323.511)" fill="#f7cc7f"/>
      <g id="Group_860" data-name="Group 860" transform="translate(20.124 33.53)">
        <path id="Path_698" data-name="Path 698" d="M1485.639,418.195a49.434,49.434,0,0,0-1.433-6.5,1.68,1.68,0,0,0-3.248.673,52.969,52.969,0,0,0,1.386,6.987,1.756,1.756,0,0,0,2.227,1.071,1.8,1.8,0,0,0,1.068-2.234Z" transform="translate(-1480.953 -410.617)" fill="#f7cc7f"/>
      </g>
      <g id="Group_861" data-name="Group 861" transform="translate(27.886 26.629)">
        <path id="Path_699" data-name="Path 699" d="M1517.909,391.575a73.016,73.016,0,0,1-6.816-4.935,1.686,1.686,0,0,0-2.208,2.544,32.036,32.036,0,0,0,7.436,5.608,1.8,1.8,0,0,0,2.4-.812,1.833,1.833,0,0,0-.81-2.4Z" transform="translate(-1508.373 -386.241)" fill="#f7cc7f"/>
      </g>
      <g id="Group_862" data-name="Group 862" transform="translate(32.288 17.478)">
        <path id="Path_700" data-name="Path 700" d="M1524.436,355.191a1.27,1.27,0,0,0-.322,1.7c.825,1.5,2.919,1.426,4.406,1.376a15.87,15.87,0,0,0,4.571-.872c2.169-.742.994-4.118-1.183-3.373C1527.651,355.482,1526.039,353.9,1524.436,355.191Z" transform="translate(-1523.921 -353.918)" fill="#f7cc7f"/>
      </g>
      <g id="Group_863" data-name="Group 863" transform="translate(26.812 3.797)">
        <path id="Path_701" data-name="Path 701" d="M1508.225,306.192c-2.142,3.143-3.892,4.2-3.62,5.934a1.483,1.483,0,0,0,1.93,1.273c1.151-.262,1.777-1.485,2.467-2.344.661-.824,1.31-1.649,1.9-2.526a1.842,1.842,0,0,0-.174-2.512,1.784,1.784,0,0,0-2.5.174Z" transform="translate(-1504.577 -305.59)" fill="#f7cc7f"/>
      </g>
      <g id="Group_864" data-name="Group 864" transform="translate(17.852)">
        <path id="Path_702" data-name="Path 702" d="M1477.19,296.033c-.685-1.905-.835-2.6-1.723-3.483a1.541,1.541,0,0,0-2.51.855c-.126,1.322.15,1.813.87,3.815a1.783,1.783,0,1,0,3.363-1.187Z" transform="translate(-1472.927 -292.178)" fill="#f7cc7f"/>
      </g>
      <g id="Group_865" data-name="Group 865" transform="translate(6.798 5.562)">
        <path id="Path_703" data-name="Path 703" d="M1440.184,314.728c-3.088-2.353-3.716-3.016-4.929-2.887a1.472,1.472,0,0,0-1.354,1.561c.289,1.487,1.151,1.891,3.991,3.969a1.79,1.79,0,0,0,2.464-.172,1.771,1.771,0,0,0-.171-2.471Z" transform="translate(-1433.881 -311.826)" fill="#f7cc7f"/>
      </g>
      <g id="Group_866" data-name="Group 866" transform="translate(0 17.432)">
        <path id="Path_704" data-name="Path 704" d="M1410.566,355.57a1.638,1.638,0,0,0,.59,2.93c1.263.165,1.751-.038,7.881-1.16a1.839,1.839,0,0,0,1.655-1.907,1.8,1.8,0,0,0-1.9-1.66C1412.424,354.925,1411.786,354.92,1410.566,355.57Z" transform="translate(-1409.868 -353.753)" fill="#f7cc7f"/>
      </g>
      <g id="Group_867" data-name="Group 867" transform="translate(4.939 28.697)">
        <path id="Path_705" data-name="Path 705" d="M1432.677,394.155c-3.36,3.261-3.852,2.685-5.179,4.679a1.512,1.512,0,0,0,1.45,2.171c1.356-.249,1.72-.479,3.487-1.883,1.027-.816,2.008-1.691,2.951-2.6a1.8,1.8,0,1,0-2.71-2.365Z" transform="translate(-1427.314 -393.547)" fill="#f7cc7f"/>
      </g>
    </g>
    <path id="Path_706" data-name="Path 706" d="M2470.426,104.407l-1.285-9.665-7.2.029-1.6-9.492-6.964-1.036-2.111-6.971-2.736,1,2.824,9.324,6.6.982,1.663,9.874,7.079-.028,1.164,8.758Z" transform="translate(-1658.422 -12.861)" fill="#f7cc7f"/>
    <path id="Path_707" data-name="Path 707" d="M2895.423,303.185l-9.655,1.151-.073,7.218-9.486,1.468-1.132,6.968-6.981,2.019.955,2.758,9.336-2.7,1.073-6.6,9.868-1.527.072-7.1,8.749-1.043Z" transform="translate(-1959.209 -174.819)" fill="#9bc1f9"/>
    <path id="Path_708" data-name="Path 708" d="M379.921,224.5l24.335,2.937-10.385-18.894Z" transform="translate(-175.424 -106.971)" fill="#96d9c9"/>
    <path id="Path_709" data-name="Path 709" d="M4229.821,182.366l24.335,2.937-10.386-18.894Z" transform="translate(-2935.435 -76.764)" fill="#86b1f2"/>
    <path id="Path_710" data-name="Path 710" d="M1946.28,174.331l-15.034-.325-5.585-14.3,3.734-1.466,4.61,11.807,15.531.336,3.644,17.048,10.352-1.054.073,4.035-13.593,1.384Z" transform="translate(-1283.572 -70.905)" fill="#50bfa5"/>
    <path id="Path_711" data-name="Path 711" d="M3136.59,172.3l-2.852-7.338-7.992-.515L3123.131,156l-8.681,2.085-3.379-9.429-8.23.931-4.73-8.538,3.222-1.8,3.537,6.384,8.684-.982,3.248,9.063,8.827-2.119,2.887,9.328,7.8.5,2.643,6.8,5.195-.745.522,3.66Z" transform="translate(-2124.106 -57.293)" fill="#50bfa5"/>
    <g id="Group_869" data-name="Group 869" transform="translate(1090.562 86.154)">
      <path id="Path_712" data-name="Path 712" d="M3509.878,165.446c-.583,6.3,4.834,12.061,10.844,13.112,6.224,1.089,11.771-2.967,13.912-8.7,4.224-11.312-8.154-20.234-14.866-13.39-6.266,6.389-4.284,15.883,2.48,15.886,2.552,0,6.659-2.139,5.03-5.232a1.032,1.032,0,0,0-1.77,0c-.821,1.4-.755,1.448-1.144,1.76a3.477,3.477,0,0,1-2.216.64c-6.887-.117-2.308-15.878,5.812-12.06,4.458,2.1,5.773,7.167,4.226,11.592-1.49,4.261-5.485,7.562-10.108,7.266-5.521-.354-10.153-5.431-10.51-10.872a.844.844,0,0,0-1.688,0Z" transform="translate(-3509.835 -154.078)" fill="#86b1f2"/>
    </g>
    <path id="Path_713" data-name="Path 713" d="M754.165,438.458l-.036-4.533-3.743-2.54a.624.624,0,0,1,.151-1.107l4.288-1.435,1.252-4.356a.62.62,0,0,1,1.1-.2l2.686,3.646,4.518-.152a.623.623,0,0,1,.526.985l-2.628,3.688,1.54,4.262a.622.622,0,0,1-.771.806l-4.31-1.366-3.566,2.786A.621.621,0,0,1,754.165,438.458Z" transform="translate(-440.816 -261.459)" fill="#f47458"/>
    <g id="Group_878" data-name="Group 878" transform="translate(1193.813 72.213)">
      <path id="Path_714" data-name="Path 714" d="M3940.054,143.529a6.709,6.709,0,0,1,4.312-3.807,5.186,5.186,0,0,1,6.533,3.6c.954,3.181-.7,7.784-6.937,13.234-8.2-1.094-12.112-4.018-13.066-7.2a5.2,5.2,0,0,1,3.468-6.617A6.685,6.685,0,0,1,3940.054,143.529Z" transform="translate(-3914.775 -129.676)" fill="#f48c7f"/>
      <g id="Group_870" data-name="Group 870" transform="translate(0 18.623)">
        <path id="Path_715" data-name="Path 715" d="M3875.741,174.484a68.932,68.932,0,0,0,7.762-1.452c.772-.191,2.167-.293,2.539-1.089a.841.841,0,0,0-.263-1.119c-.727-.5-1.828.037-2.605.229-2.371.584-5.083,1.133-7.854,1.528a.975.975,0,0,0,.422,1.9Z" transform="translate(-3874.561 -170.616)" fill="#f48c7f"/>
      </g>
      <g id="Group_871" data-name="Group 871" transform="translate(41.118 15.421)">
        <path id="Path_716" data-name="Path 716" d="M4020.952,162.737c1.139-.261,2.272-.542,3.408-.821a10.689,10.689,0,0,0,3.354-1.013.845.845,0,0,0-.354-1.579,10.554,10.554,0,0,0-3.431.651c-1.134.282-2.269.56-3.4.86a.975.975,0,0,0,.422,1.9Z" transform="translate(-4019.803 -159.305)" fill="#f48c7f"/>
      </g>
      <g id="Group_872" data-name="Group 872" transform="translate(13.375 28.341)">
        <path id="Path_717" data-name="Path 717" d="M3923.7,211.439c.843-2.745,2.4-3.907,3.5-5.149a.788.788,0,0,0-.892-1.271c-2.288.955-3.79,3.585-4.462,5.858a.969.969,0,0,0,1.853.562Z" transform="translate(-3921.807 -204.944)" fill="#f48c7f"/>
      </g>
      <g id="Group_873" data-name="Group 873" transform="translate(27.495 31.136)">
        <path id="Path_718" data-name="Path 718" d="M3974,221.342a8.634,8.634,0,0,1-.262-3.56c.1-.736,1-2.937-.417-2.965-1.336-.025-1.512,2.209-1.6,3.157a10.2,10.2,0,0,0,.374,3.793c.353,1.2,2.249.791,1.9-.425Z" transform="translate(-3971.684 -214.816)" fill="#f48c7f"/>
      </g>
      <g id="Group_874" data-name="Group 874" transform="translate(37.01 26.203)">
        <path id="Path_719" data-name="Path 719" d="M4006,199.344l2.227.919c.74.305,1.5.827,2.3.455a.864.864,0,0,0,.358-1.134c-.283-.745-1.4-.956-2.077-1.231l-2.23-.905a1,1,0,0,0-1.232.661,1.015,1.015,0,0,0,.659,1.235Z" transform="translate(-4005.295 -197.392)" fill="#f48c7f"/>
      </g>
      <g id="Group_875" data-name="Group 875" transform="translate(10.108 3.015)">
        <path id="Path_720" data-name="Path 720" d="M3915.943,121.235c-3.815-5.233-3.775-5.274-4.377-5.635a.861.861,0,0,0-1.278.911c.17.718.155.6,4.189,6.088a1,1,0,0,0,1.413.053,1.029,1.029,0,0,0,.053-1.417Z" transform="translate(-3910.265 -115.482)" fill="#f48c7f"/>
      </g>
      <g id="Group_876" data-name="Group 876" transform="translate(24.024 0)">
        <path id="Path_721" data-name="Path 721" d="M3961.527,111.023a14.943,14.943,0,0,0,.093-3.185c-.077-.99-.062-2.518-1.1-2.967a.734.734,0,0,0-.739.171c-.674.745-.194,2-.126,2.914a17.57,17.57,0,0,1-.057,2.994.979.979,0,0,0,.931,1.006.991.991,0,0,0,1-.933Z" transform="translate(-3959.421 -104.832)" fill="#f48c7f"/>
      </g>
      <g id="Group_877" data-name="Group 877" transform="translate(35.966 2.713)">
        <path id="Path_722" data-name="Path 722" d="M4006.62,115.3a.862.862,0,0,0-.811-.876c-.857-.121-1.7.889-2.265,1.438a17.06,17.06,0,0,0-1.79,2.073.989.989,0,0,0,.317,1.347,1,1,0,0,0,1.344-.318C4005.574,116.26,4006.467,116.5,4006.62,115.3Z" transform="translate(-4001.604 -114.415)" fill="#f48c7f"/>
      </g>
    </g>
    <g id="Group_880" data-name="Group 880" transform="translate(524.721 59.332)">
      <g id="Group_879" data-name="Group 879">
        <path id="Path_723" data-name="Path 723" d="M1516.3,64.624l3.881,1.667s6.48-1.446,7.2-2.663,1.147-4.293,2.052-4.3a2.768,2.768,0,0,1,2.865,2.6c.177,1.564-2.45,5.795-2.133,6.3a22.293,22.293,0,0,0,4.024,2.057,3.14,3.14,0,0,1,1.857,2.668v0a1.673,1.673,0,0,1-1.214,1.72l-1.181.333.272,1.205a1.673,1.673,0,0,1-1.248,2l-.911.213.227.74a1.673,1.673,0,0,1-1.282,2.135l-.792.152.016.208a1.672,1.672,0,0,1-1.394,1.776l-.786.129-10.336-4.44a7.738,7.738,0,0,1-2.567-1.793l-3.378-2.165a.874.874,0,0,1-.326-1.091l4.012-9.012A.869.869,0,0,1,1516.3,64.624Z" transform="translate(-1511.071 -59.332)" fill="#50bfa5"/>
      </g>
    </g>
    <g id="Group_882" data-name="Group 882" transform="translate(1252.002 140.785)">
      <g id="Group_881" data-name="Group 881" transform="translate(0)">
        <path id="Path_724" data-name="Path 724" d="M4085.33,352.347l3.881,1.667s6.48-1.446,7.2-2.663,1.147-4.293,2.052-4.3a2.767,2.767,0,0,1,2.865,2.6c.178,1.564-2.45,5.795-2.132,6.3a22.292,22.292,0,0,0,4.023,2.057,3.142,3.142,0,0,1,1.858,2.668v0a1.674,1.674,0,0,1-1.214,1.72l-1.181.333.271,1.205a1.673,1.673,0,0,1-1.248,2l-.91.213.226.74a1.673,1.673,0,0,1-1.282,2.135l-.792.152.015.208a1.672,1.672,0,0,1-1.394,1.776l-.785.129-10.336-4.44a7.724,7.724,0,0,1-2.566-1.793l-3.378-2.165a.874.874,0,0,1-.326-1.091l4.012-9.012A.869.869,0,0,1,4085.33,352.347Z" transform="translate(-4080.106 -347.055)" fill="#94dcf0"/>
      </g>
    </g>
  </g>
</svg>
