<svg xmlns="http://www.w3.org/2000/svg" width="65" height="65" viewBox="0 0 65 65">
  <g id="Group_1202" data-name="Group 1202" transform="translate(-412 -1279)">
    <circle id="Ellipse_62" data-name="Ellipse 62" cx="32.5" cy="32.5" r="32.5" transform="translate(412 1279)" fill="rgba(244,166,115,0.35)"/>
    <g id="c" transform="translate(402 1269)">
      <g id="Group_1194" data-name="Group 1194" transform="translate(20 20)">
        <path id="Path_1105" data-name="Path 1105" d="M20.75,158.039a2.8,2.8,0,0,1,1.769-2.613l1.747-.7a.375.375,0,0,0,.126-.614A4.718,4.718,0,0,1,23,150.755v-.129A1.876,1.876,0,0,1,25.817,149a2.613,2.613,0,0,0-.564,1.624v.129a5.458,5.458,0,0,0,1.236,3.475l-1.247.5A3.547,3.547,0,0,0,23,158.039v3.844h.75v-3.844a2.8,2.8,0,0,1,1.769-2.613l1.747-.7a.375.375,0,0,0,.126-.614A4.718,4.718,0,0,1,26,150.755v-.129a1.876,1.876,0,1,1,3.752,0v.129a4.718,4.718,0,0,1-1.391,3.358.375.375,0,0,0,.126.614l1.747.7a2.8,2.8,0,0,1,1.769,2.613v.092h.75v-.092a3.547,3.547,0,0,0-2.241-3.31l-1.247-.5a5.458,5.458,0,0,0,1.236-3.475v-.129A2.613,2.613,0,0,0,29.943,149a1.874,1.874,0,0,1,2.815,1.623v.129a4.718,4.718,0,0,1-1.391,3.358.375.375,0,0,0,.126.614l1.747.7a2.8,2.8,0,0,1,1.769,2.613v.092h.75v-.092a3.547,3.547,0,0,0-2.241-3.31l-1.247-.5a5.458,5.458,0,0,0,1.236-3.475v-.129a2.626,2.626,0,0,0-4.128-2.154,2.618,2.618,0,0,0-3,0,2.625,2.625,0,0,0-4.128,2.154v.129a5.458,5.458,0,0,0,1.236,3.475l-1.247.5A3.547,3.547,0,0,0,20,158.039v3.844h.75v-3.844Z" transform="translate(-20 -135.993)" fill="#ff8637"/>
        <path id="Path_1106" data-name="Path 1106" d="M337.864,161.006a7.877,7.877,0,1,0-13.5-2.763l.716-.225a7.13,7.13,0,1,1,12.062,2.675.375.375,0,0,0-.059.421l1.564,3.128-4.541-1.514a.375.375,0,0,0-.224,0,7.163,7.163,0,0,1-4.851-.309l-.3.688a7.915,7.915,0,0,0,5.247.374l5.291,1.763a.375.375,0,0,0,.454-.524l-1.856-3.711Z" transform="translate(-295.483 -135.993)" fill="#ff8637"/>
        <path id="Path_1107" data-name="Path 1107" d="M395.377,184v1.126H392v.75h1.193l.039.2a7.891,7.891,0,0,0,1.98,3.841,7.094,7.094,0,0,1-1,.727l-.906.543.386.644.906-.543a7.844,7.844,0,0,0,1.153-.847,7.842,7.842,0,0,0,1.153.847l.906.543.386-.644-.906-.543a7.1,7.1,0,0,1-1-.727,7.892,7.892,0,0,0,1.98-3.841l.039-.2H399.5v-.75h-3.377V184Zm2.159,1.924a7.139,7.139,0,0,1-1.784,3.467,7.139,7.139,0,0,1-1.784-3.467l-.01-.048h3.587Z" transform="translate(-357.104 -168.616)" fill="#ff8637"/>
        <path id="Path_1108" data-name="Path 1108" d="M350.858,196a.375.375,0,0,0-.351.243l-2.251,6,.7.263.753-2.008H352l.753,2.008.7-.263-2.251-6A.375.375,0,0,0,350.858,196Zm-.866,3.752.866-2.308.866,2.308Z" transform="translate(-317.462 -179.49)" fill="#ff8637"/>
        <path id="Path_1109" data-name="Path 1109" d="M164,102.627a2.63,2.63,0,0,0,2.251,2.6V107.5h-1.876v.75h1.876v1.876H167v-1.876h1.876v-.75H167v-2.279a2.626,2.626,0,1,0-3-2.6Zm2.627-1.876a1.876,1.876,0,1,1-1.876,1.876A1.878,1.878,0,0,1,166.627,100.75Z" transform="translate(-150.492 -92.495)" fill="#ff8637"/>
        <path id="Path_1110" data-name="Path 1110" d="M268.255,120.127v-3.752a.375.375,0,0,0-.375-.375h-3.752v.75h2.846l-2.775,2.775a2.629,2.629,0,1,0,.531.531l2.775-2.775v2.846Zm-5.628,3.377a1.876,1.876,0,1,1,1.876-1.876A1.878,1.878,0,0,1,262.627,123.5Z" transform="translate(-237.486 -106.995)" fill="#ff8637"/>
        <path id="Path_1111" data-name="Path 1111" d="M196.75,21.281,198.471,23l-1.327,1.327.531.531L199,23.532l.524.524a2.625,2.625,0,0,0,1.728,4.172v2.279h-1.876v.75h1.876v1.876H202V31.257h1.876v-.75H202V28.228a2.625,2.625,0,0,0,1.728-4.172l2.775-2.775v2.846h.75V20.375a.375.375,0,0,0-.375-.375h-3.752v.75h2.846L203.2,23.526a2.621,2.621,0,0,0-3.144,0L199.532,23l1.327-1.327-.531-.531L199,22.471l-1.721-1.721h2.846V20h-3.752a.375.375,0,0,0-.375.375v3.752h.75Zm6.754,4.347a1.876,1.876,0,1,1-1.876-1.876A1.878,1.878,0,0,1,203.5,25.628Z" transform="translate(-179.49 -20)" fill="#ff8637"/>
        <path id="Path_1112" data-name="Path 1112" d="M148.743,241.136l-4.326-12.258h2.471v-.75h-7.907a2.632,2.632,0,0,0-2.224-2.224V224h-.75v1.9a2.632,2.632,0,0,0-2.224,2.224h-7.907v.75h2.471l-4.326,12.258h0a.372.372,0,0,0-.023.124v.75a2.63,2.63,0,0,0,2.627,2.627h4.5a2.63,2.63,0,0,0,2.627-2.627v-.75a.372.372,0,0,0-.023-.124h0l-4.326-12.258h4.375a2.632,2.632,0,0,0,2.224,2.224v14.286h-1.126a2.63,2.63,0,0,0-2.627,2.627v.75a.375.375,0,0,0,.375.375h7.5a.375.375,0,0,0,.375-.375v-.75a2.63,2.63,0,0,0-2.627-2.627h-1.126V231.1a2.632,2.632,0,0,0,2.224-2.224h4.375l-4.326,12.258h0a.371.371,0,0,0-.023.124v.75a2.63,2.63,0,0,0,2.627,2.627h4.5a2.63,2.63,0,0,0,2.627-2.627v-.75a.371.371,0,0,0-.023-.124Zm-8.829-.25,3.972-11.255,3.972,11.255Zm-15.009,0,3.972-11.255,3.972,11.255Z" transform="translate(-114.244 -204.863)" fill="#ff8637"/>
        <path id="Path_1113" data-name="Path 1113" d="M25.792,303.177l-.734.154A22.174,22.174,0,0,0,32.98,316.11l.466-.588A21.423,21.423,0,0,1,25.792,303.177Z" transform="translate(-24.583 -276.613)" fill="#ff8637"/>
        <path id="Path_1114" data-name="Path 1114" d="M394.889,348.513l.457.595a22.184,22.184,0,0,0,7.125-9.463l-.7-.275A21.434,21.434,0,0,1,394.889,348.513Z" transform="translate(-359.722 -309.412)" fill="#ff8637"/>
        <path id="Path_1115" data-name="Path 1115" d="M339.246,43.05l.671-.337a22.3,22.3,0,0,0-12.924-11.127l-.233.713A21.547,21.547,0,0,1,339.246,43.05Z" transform="translate(-297.984 -30.499)" fill="#ff8637"/>
        <path id="Path_1116" data-name="Path 1116" d="M65,32.3l-.233-.713a22.15,22.15,0,0,0-12.214,9.825l.647.381A21.4,21.4,0,0,1,65,32.3Z" transform="translate(-49.5 -30.5)" fill="#ff8637"/>
      </g>
    </g>
  </g>
</svg>
