<svg xmlns="http://www.w3.org/2000/svg" width="65" height="65" viewBox="0 0 65 65">
  <g id="Group_1199" data-name="Group 1199" transform="translate(-117 -1279)">
    <circle id="Ellipse_61" data-name="Ellipse 61" cx="32.5" cy="32.5" r="32.5" transform="translate(117 1279)" fill="rgba(244,166,115,0.35)"/>
    <g id="_x30_1" transform="translate(125 1287)">
      <g id="Group_1187" data-name="Group 1187" transform="translate(2 2)">
        <path id="Path_1089" data-name="Path 1089" d="M46.264,23.312a1.639,1.639,0,0,0-1.639,1.639A19.668,19.668,0,1,1,41.6,14.465a1.64,1.64,0,0,0,2.773-1.751A22.955,22.955,0,1,0,47.9,24.952,1.639,1.639,0,0,0,46.264,23.312Z" transform="translate(-2 -2)" fill="#ff8637"/>
        <path id="Path_1090" data-name="Path 1090" d="M5,22.755a1.639,1.639,0,0,0,1.639,1.639H8.475c4,7.387,13.264,12.632,13.762,12.909a1.639,1.639,0,0,0,1.593,0c.5-.277,9.76-5.522,13.762-12.909h1.835a1.639,1.639,0,0,0,0-3.279h-.493a12.206,12.206,0,0,0,.493-3.279A9.838,9.838,0,0,0,23.033,10.5,9.838,9.838,0,0,0,6.639,17.836a12.2,12.2,0,0,0,.493,3.279H6.639A1.639,1.639,0,0,0,5,22.755ZM23.033,33.963c-2.054-1.262-7.578-4.929-10.763-9.569h4.205a1.64,1.64,0,0,0,1.159-.48l1.521-1.521,2.355,5.888a1.639,1.639,0,0,0,2.682.551l4.438-4.438H33.8C30.611,29.034,25.087,32.7,23.033,33.963ZM9.918,17.836a6.555,6.555,0,0,1,6.538-6.558A6.482,6.482,0,0,1,21.717,13.9a1.7,1.7,0,0,0,2.632,0,6.482,6.482,0,0,1,5.261-2.618,6.555,6.555,0,0,1,6.538,6.558,9.559,9.559,0,0,1-.634,3.279H27.952a1.64,1.64,0,0,0-1.159.48l-3.16,3.16-2.355-5.888a1.64,1.64,0,0,0-2.682-.551l-2.8,2.8H10.553A9.56,9.56,0,0,1,9.918,17.836Z" transform="translate(-0.082 1.836)" fill="#ff8637"/>
      </g>
    </g>
  </g>
</svg>
